<svg width="48" height="48" viewBox="0 0 48 48" fill="none" xmlns="http://www.w3.org/2000/svg">
<rect width="48" height="48" fill="#0D0009"/>
<path d="M33.2493 15.016C32.5136 14.8533 31.6642 14.9577 30.8644 15.2591C30.8712 14.8269 30.8692 14.4048 30.857 14H23.9998H17.1426C17.1304 14.4048 17.1281 14.8269 17.1352 15.2591C16.3354 14.9577 15.4862 14.8533 14.7503 15.016C13.6623 15.2553 12.9236 16.0032 12.6703 17.1198C12.3395 18.5777 13.0678 20.2493 14.7209 21.8271C16.0234 23.07 17.7708 24.1041 19.6162 24.7429C20.3808 25.8208 21.3596 26.6893 22.6015 27.2173C22.4205 27.8787 21.7849 29.7947 20.2492 30.9671H23.9998H27.7506C26.2146 29.7947 25.5794 27.8787 25.3984 27.2173C26.6403 26.6893 27.6193 25.8208 28.3836 24.7426C30.2288 24.1041 31.9765 23.07 33.279 21.8271C34.932 20.2491 35.6604 18.5777 35.3295 17.1198C35.076 16.0032 34.3373 15.2553 33.2493 15.016ZM15.8213 20.6744C14.6258 19.5327 14.0288 18.3361 14.2248 17.4727C14.3399 16.9632 14.6162 16.6772 15.0938 16.5718C15.7242 16.4326 16.5466 16.644 17.2239 17.0631C17.3778 18.8906 17.7388 20.7992 18.4144 22.4926C17.4422 21.9871 16.5494 21.3695 15.8213 20.6744ZM32.1783 20.6744C31.4502 21.3693 30.5574 21.9871 29.5852 22.4928C30.261 20.7994 30.622 18.8908 30.7756 17.0633C31.453 16.6445 32.2753 16.4331 32.9058 16.572C33.3834 16.6775 33.6597 16.9634 33.7748 17.473C33.9708 18.3364 33.3738 19.5329 32.1783 20.6744Z" fill="white"/>
<path d="M28.8166 31.9177H19.1836V34H28.8166V31.9177Z" fill="white"/>
</svg>
