<svg width="48" height="48" viewBox="0 0 48 48" fill="none" xmlns="http://www.w3.org/2000/svg">
<path fill-rule="evenodd" clip-rule="evenodd" d="M6.40909 6.40909H23.5909V11.7273H21.1364C19.3289 11.7273 17.8636 13.1925 17.8636 15C17.8636 16.8075 19.3289 18.2727 21.1364 18.2727H23.5909H23.7955V23.7955H17.8636V24V24.2045V24.4091V24.8182V26.8636C17.8636 28.4452 16.5815 29.7273 15 29.7273C13.4185 29.7273 12.1364 28.4452 12.1364 26.8636V24.8182V24.4091V24.2045V24V23.7955H6.40909V6.40909ZM18.2727 24.2045V24.4091V26.8636C18.2727 28.6711 16.8075 30.1364 15 30.1364C13.1925 30.1364 11.7273 28.6711 11.7273 26.8636V24.4091V24.2045H6.40909V41.5909H23.5909V35.8636H24H24.4091H24.8182H26.8636C28.4452 35.8636 29.7273 34.5815 29.7273 33C29.7273 31.4185 28.4452 30.1364 26.8636 30.1364H24.8182H24.4091H24.2045H24H23.7955V24.2045H18.2727ZM24.2045 24.2045V29.7273H24.4091H26.8636C28.6711 29.7273 30.1364 31.1925 30.1364 33C30.1364 34.8075 28.6711 36.2727 26.8636 36.2727H24.4091H24V41.5909H41.5909V24.2045H35.8636V24V23.7955V23.5909V23.1818V21.1364C35.8636 19.5548 34.5815 18.2727 33 18.2727C31.4185 18.2727 30.1364 19.5548 30.1364 21.1364V23.1818V23.5909V23.7955V24V24.2045H24.2045ZM29.7273 23.7955V23.5909V21.1364C29.7273 19.3289 31.1925 17.8636 33 17.8636C34.8075 17.8636 36.2727 19.3289 36.2727 21.1364V23.5909V23.7955H41.5909V6.40909H24V11.7273V11.9318V12.1364H23.5909H23.1818H21.1364C19.5548 12.1364 18.2727 13.4185 18.2727 15C18.2727 16.5815 19.5548 17.8636 21.1364 17.8636H23.1818H23.5909H23.7955H24H24.2045V23.7955H29.7273ZM6 6H6.40909H41.5909H42V6.40909V41.5909V42H41.5909H6.40909H6V41.5909V6.40909V6Z" fill="#0D0009"/>
<path fill-rule="evenodd" clip-rule="evenodd" d="M4.75 4.75H43.25V43.25H4.75V4.75ZM7.65909 7.65909V22.5455H13.3864V26.8636C13.3864 27.7548 14.1088 28.4773 15 28.4773C15.8912 28.4773 16.6136 27.7548 16.6136 26.8636V22.5455H22.5455V19.5227H21.1364C18.6385 19.5227 16.6136 17.4978 16.6136 15C16.6136 12.5022 18.6385 10.4773 21.1364 10.4773H22.3409V7.65909H7.65909ZM22.3409 40.3409V34.6136H26.8636C27.7548 34.6136 28.4773 33.8912 28.4773 33C28.4773 32.1088 27.7548 31.3864 26.8636 31.3864H22.5455V25.4545H19.5227V26.8636C19.5227 29.3615 17.4978 31.3864 15 31.3864C12.5022 31.3864 10.4773 29.3615 10.4773 26.8636V25.4545H7.65909V40.3409H22.3409ZM40.3409 25.4545H34.6136V21.1364C34.6136 20.2452 33.8912 19.5227 33 19.5227C32.1088 19.5227 31.3864 20.2452 31.3864 21.1364V25.4545H25.4545V28.4773H26.8636C29.3615 28.4773 31.3864 30.5022 31.3864 33C31.3864 35.4978 29.3615 37.5227 26.8636 37.5227H25.25V40.3409H40.3409V25.4545ZM25.25 7.65909V13.3864H21.1364C20.2452 13.3864 19.5227 14.1088 19.5227 15C19.5227 15.8912 20.2452 16.6136 21.1364 16.6136H25.4545V22.5455H28.4773V21.1364C28.4773 18.6385 30.5022 16.6136 33 16.6136C35.4978 16.6136 37.5227 18.6385 37.5227 21.1364V22.5455H40.3409V7.65909H25.25Z" fill="#0D0009"/>
</svg>
