<svg width="48" height="48" viewBox="0 0 48 48" fill="none" xmlns="http://www.w3.org/2000/svg">
<path fill-rule="evenodd" clip-rule="evenodd" d="M13 7H7V13H13V7ZM4 4V16H16V4H4Z" fill="black"/>
<path fill-rule="evenodd" clip-rule="evenodd" d="M41 7H21V13H41V7ZM18 4V16H44V4H18Z" fill="black"/>
<path fill-rule="evenodd" clip-rule="evenodd" d="M41 21H21V27H41V21ZM18 18V30H44V18H18Z" fill="black"/>
<path fill-rule="evenodd" clip-rule="evenodd" d="M41 35H21V41H41V35ZM18 32V44H44V32H18Z" fill="black"/>
<path fill-rule="evenodd" clip-rule="evenodd" d="M13 21H7V27H13V21ZM4 18V30H16V18H4Z" fill="black"/>
<path fill-rule="evenodd" clip-rule="evenodd" d="M13 35H7V41H13V35ZM4 32V44H16V32H4Z" fill="black"/>
</svg>
