<svg width="48" height="48" viewBox="0 0 48 48" fill="none" xmlns="http://www.w3.org/2000/svg">
<path fill-rule="evenodd" clip-rule="evenodd" d="M9 4H31.8284L41 13.1716V44H9V4ZM13 8V40H37V14.8284L30.1716 8H13Z" fill="black"/>
<path d="M28.843 28.4489L28.8135 28C29.2708 28 29.8314 28.0464 30.4658 28.0464C31.1886 28.031 31.5132 28 32 28V28.4489C31.1149 28.5418 30.9673 28.6192 30.687 29.3932C29.9789 31.4211 28.9168 35.0743 28.0906 37.969C27.7513 37.9536 27.3235 37.969 27.058 38C26.6301 36.2663 25.7007 33.0929 24.8599 30.0433C23.7829 34.13 23.2813 35.9257 22.7798 37.969C22.5437 37.9226 22.0274 37.9845 21.7471 38C21.0832 35.3994 19.844 30.9876 19.3277 29.3932C19.0622 28.5882 18.8704 28.4644 18 28.4489V28C18.3688 28.0155 19.0622 28.0464 19.844 28.0464C20.4784 28.0464 21.1275 28 21.8061 28L21.8946 28.4489L21.1423 28.5418C20.9357 28.5728 20.8767 28.6656 20.9357 28.8978C21.3783 30.7554 22.3519 34.2848 22.7798 35.9102C23.6797 32.582 24.6681 28.6811 24.7861 28.0464C25.1549 28.0774 25.686 28.0464 25.9368 28.031C26.1433 28.9443 27.058 32.2105 28.1349 36.0031C29.0348 32.9845 29.8314 30.0588 30.0084 29.1146C30.0969 28.6811 30.0379 28.5728 29.7134 28.5418L28.843 28.4489Z" fill="black"/>
<path fill-rule="evenodd" clip-rule="evenodd" d="M28.3717 28.9014L28.2795 27.4999H28.8135C29.0347 27.4999 29.2771 27.5102 29.525 27.5207C29.548 27.5217 29.5711 27.5226 29.5942 27.5236C29.8688 27.5351 30.1566 27.5463 30.4604 27.5464C30.7624 27.5399 31.0068 27.5298 31.2279 27.5208C31.4993 27.5096 31.7355 27.4999 32 27.4999H32.5V28.8991L32.0522 28.9461C31.5785 28.9958 31.4606 29.0352 31.4033 29.0753C31.366 29.1014 31.3015 29.1652 31.1581 29.5608C30.4558 31.5727 29.3983 35.2087 28.5714 38.1062L28.4629 38.4865L28.0678 38.4685C27.7531 38.4541 27.3524 38.469 27.1159 38.4966L26.6781 38.5476L26.5725 38.1197C26.3003 37.0166 25.8246 35.33 25.296 33.4559C25.1575 32.965 25.0153 32.4611 24.8723 31.9515C24.6989 32.6048 24.5432 33.189 24.4012 33.7217C23.9162 35.5416 23.5911 36.7612 23.2654 38.0882L23.1516 38.5517L22.6832 38.4596C22.6376 38.4506 22.5125 38.4482 22.31 38.4603C22.2187 38.4658 22.1251 38.4732 22.033 38.4805L22.0227 38.4813C21.9367 38.4881 21.8491 38.4951 21.7747 38.4992L21.3643 38.5218L21.2626 38.1236C20.6002 35.5284 19.3644 31.1298 18.8525 29.5485C18.7181 29.1415 18.6437 29.0625 18.6031 29.034C18.5547 28.9999 18.4408 28.9568 17.9911 28.9488L17.5 28.94V27.4785L18.021 27.5004C18.0388 27.5011 18.0573 27.5019 18.0765 27.5027C18.4566 27.5188 19.1112 27.5464 19.844 27.5464C20.1469 27.5464 20.4546 27.5354 20.7785 27.5239L20.7907 27.5235C21.1161 27.5119 21.4566 27.4999 21.8061 27.4999H22.2172L22.4891 28.8793L21.4757 29.0044C21.7968 30.3244 22.3357 32.3263 22.7735 33.9527C22.7755 33.9599 22.7774 33.9672 22.7794 33.9744C23.5202 31.1702 24.2012 28.4569 24.2945 27.955L24.3772 27.5103L24.8279 27.5481C25.1537 27.5755 25.6467 27.5479 25.906 27.5319L26.3306 27.5056L26.4245 27.9206C26.5967 28.6824 27.2794 31.143 28.1434 34.1991C28.8287 31.8279 29.3769 29.7686 29.5168 29.0236L28.3717 28.9014ZM29.5454 28.8238C29.5454 28.8237 29.5455 28.8246 29.5455 28.8264L29.5454 28.8238ZM28.1349 36.003C28.0487 35.6995 27.9635 35.3994 27.8797 35.1035C26.9161 31.7027 26.1268 28.8711 25.9368 28.0309C25.686 28.0464 25.1549 28.0773 24.7861 28.0464C24.6794 28.6203 23.8608 31.8655 23.0396 34.9426C22.9528 35.2681 22.8659 35.5918 22.7798 35.9102C22.7076 35.6361 22.62 35.308 22.522 34.9429C22.4507 34.6772 22.3739 34.392 22.2937 34.0937C21.8298 32.3707 21.2494 30.2143 20.9357 28.8978C20.8767 28.6656 20.9357 28.5727 21.1423 28.5417L21.8946 28.4489L21.8061 27.9999C21.6739 27.9999 21.5429 28.0017 21.4128 28.0045C21.2034 28.0091 20.9966 28.0165 20.792 28.0237C20.4713 28.0352 20.1559 28.0464 19.844 28.0464C19.4525 28.0464 19.0832 28.0386 18.7658 28.0289C18.6724 28.0261 18.5836 28.0231 18.5 28.02C18.3277 28.0138 18.1776 28.0074 18.0563 28.0023C18.0397 28.0016 18.0235 28.0009 18.008 28.0003C18.0053 28.0002 18.0026 28.0001 18 27.9999V28.4489C18.2997 28.4542 18.5189 28.4724 18.6884 28.5268C19.0112 28.6303 19.1536 28.8653 19.3277 29.3931C19.844 30.9876 21.0832 35.3993 21.7471 37.9999C21.8153 37.9962 21.8976 37.9896 21.9864 37.9826C22.2622 37.9607 22.6012 37.9338 22.7798 37.969C23.1067 36.6372 23.4336 35.4107 23.9198 33.5865C24.1185 32.8409 24.3439 31.9953 24.6067 31.0019C24.6875 30.6968 24.7717 30.3777 24.8599 30.0433C24.9474 30.3609 25.036 30.6799 25.1248 30.9985C25.3425 31.779 25.5619 32.557 25.7733 33.3064C26.304 35.1877 26.7839 36.8892 27.058 37.9999C27.3235 37.969 27.7513 37.9535 28.0906 37.969C28.2571 37.3856 28.4332 36.7713 28.6141 36.1458C28.8176 35.4416 29.0273 34.7232 29.236 34.0182C29.7619 32.2423 30.2823 30.5522 30.687 29.3931C30.9112 28.7742 31.0504 28.6007 31.5497 28.5086C31.6749 28.4855 31.8226 28.4675 32 28.4489V27.9999C31.9841 27.9999 31.9684 28 31.9529 28C31.7928 28.0007 31.6489 28.0047 31.5 28.0102C31.4973 28.0103 31.4945 28.0104 31.4918 28.0105C31.4184 28.0133 31.3436 28.0164 31.265 28.0197C31.0465 28.0289 30.7983 28.0393 30.4658 28.0464C30.144 28.0464 29.8411 28.0344 29.5611 28.0227C29.5426 28.0219 29.5242 28.0211 29.5059 28.0203C29.4411 28.0176 29.3776 28.0149 29.3154 28.0124C29.1661 28.0065 29.0243 28.0017 28.8909 28.0004C28.8647 28.0001 28.839 27.9999 28.8135 27.9999L28.843 28.4489L29.7134 28.5417C30.0379 28.5727 30.0969 28.6811 30.0084 29.1145C29.8737 29.8329 29.3804 31.6984 28.7557 33.8791C28.6412 34.2791 28.5221 34.6898 28.4001 35.106C28.3131 35.4028 28.2245 35.7024 28.1349 36.003C28.1349 36.003 28.1349 36.003 28.1349 36.003Z" fill="black"/>
</svg>
