<svg width="286" height="43" viewBox="0 0 286 43" fill="none" xmlns="http://www.w3.org/2000/svg">
<path fill-rule="evenodd" clip-rule="evenodd" d="M0 13.2793H51.8526V16.441H0V13.2793ZM0 39.8382H51.8526V42.9999H0V39.8382ZM6.95633 37.941L6.95633 24.0293L2.52989 24.0293L2.52989 37.941H6.95633ZM13.9115 26.5588V37.9411H9.48504L9.48504 26.5588L13.9115 26.5588ZM20.8681 37.9405V34.1464H16.4416V37.9405H20.8681ZM27.8227 24.0293V37.941H23.3963V24.0293L27.8227 24.0293ZM34.7791 37.9407V17.7056H30.3526L30.3526 37.9407L34.7791 37.9407ZM41.7354 24.0293V37.941H37.309V24.0293L41.7354 24.0293ZM48.6906 37.9407V17.7056H44.2641V37.9407L48.6906 37.9407Z" fill="#595858"/>
<path d="M48.3807 11.3823H3.16156C6.96713 4.68227 15.6583 0 25.7711 0C35.8839 0 44.5751 4.68227 48.3807 11.3823Z" fill="#0D0009"/>
<path d="M4.11116 24.6624L18.6552 34.7799L32.883 18.3389L39.8389 24.6624L47.1109 18.3389" stroke="#0D0009"/>
<path d="M269.075 40.1999C268.538 40.1999 268.045 40.1551 267.597 40.0655C267.149 39.9759 266.769 39.7967 266.455 39.5504C266.119 39.3264 265.873 38.9905 265.694 38.5874C265.515 38.1842 265.425 37.6691 265.425 37.0421V30.8832H263.902V28.5988H265.425V24.9707H268.986V28.5988H271.069V30.8832H268.986V36.2582C268.986 36.7061 269.098 37.0197 269.322 37.154C269.546 37.3108 269.859 37.378 270.262 37.378C270.419 37.378 270.576 37.378 270.733 37.378C270.867 37.378 270.979 37.3556 271.069 37.3556V40.0207C270.89 40.0655 270.643 40.1103 270.307 40.1551C269.971 40.1999 269.568 40.1999 269.075 40.1999Z" fill="#595858"/>
<path d="M258.902 40.4236C257.2 40.4236 255.879 40.0653 254.893 39.3486C253.908 38.632 253.37 37.6242 253.325 36.3476H256.774C256.842 36.9299 257.066 37.3554 257.424 37.6242C257.782 37.9153 258.252 38.0497 258.88 38.0497C259.417 38.0497 259.865 37.9601 260.179 37.7585C260.492 37.5794 260.671 37.2882 260.671 36.9075C260.671 36.6611 260.582 36.4596 260.425 36.3028C260.246 36.146 260.044 36.0117 259.775 35.9221C259.507 35.8325 259.193 35.7429 258.835 35.6981C258.476 35.6533 258.118 35.5861 257.76 35.4966C257.267 35.407 256.774 35.3174 256.282 35.183C255.789 35.0486 255.341 34.8695 254.938 34.6007C254.535 34.3544 254.221 34.0184 253.997 33.5929C253.751 33.1674 253.639 32.6075 253.639 31.9356C253.639 31.3533 253.751 30.8158 254.02 30.3455C254.288 29.8976 254.647 29.5169 255.095 29.2033C255.543 28.8898 256.058 28.6658 256.662 28.509C257.267 28.3523 257.917 28.2627 258.588 28.2627C260.201 28.2627 261.455 28.5986 262.329 29.2481C263.18 29.92 263.672 30.8158 263.762 31.9356H260.402C260.313 31.4205 260.111 31.0622 259.798 30.883C259.484 30.7038 259.059 30.5919 258.566 30.5919C258.118 30.5919 257.737 30.6814 257.424 30.8606C257.11 31.0398 256.976 31.2861 256.976 31.6445C256.976 31.8684 257.043 32.0252 257.2 32.1372C257.334 32.2716 257.536 32.3611 257.805 32.4507C258.051 32.5403 258.342 32.6075 258.678 32.6523C259.014 32.7195 259.372 32.7867 259.731 32.8314C260.223 32.921 260.738 33.033 261.254 33.1674C261.769 33.3018 262.239 33.4809 262.664 33.7497C263.09 34.0184 263.448 34.3992 263.717 34.8471C263.986 35.295 264.12 35.8997 264.12 36.6163C264.12 37.2434 263.986 37.8033 263.717 38.2736C263.448 38.7663 263.09 39.1471 262.642 39.4606C262.172 39.7742 261.612 40.0205 260.985 40.1773C260.335 40.3564 259.641 40.4236 258.902 40.4236Z" fill="#595858"/>
<path d="M247.097 37.8258C247.903 37.8258 248.508 37.5122 248.911 36.8852C249.314 36.2581 249.538 35.407 249.538 34.3544C249.538 33.3242 249.314 32.4732 248.911 31.8237C248.508 31.1966 247.903 30.8607 247.097 30.8607C246.291 30.8607 245.686 31.1966 245.283 31.8237C244.88 32.4732 244.678 33.3242 244.678 34.3544C244.678 35.407 244.88 36.2581 245.283 36.8852C245.686 37.5122 246.291 37.8258 247.097 37.8258ZM247.119 40.4237C246.179 40.4237 245.35 40.2893 244.589 39.9758C243.827 39.6622 243.2 39.2367 242.663 38.6992C242.125 38.1617 241.7 37.5122 241.409 36.7732C241.117 36.0341 240.983 35.2279 240.983 34.3544C240.983 33.5034 241.117 32.6971 241.409 31.9581C241.7 31.219 242.125 30.5695 242.663 30.032C243.2 29.4945 243.827 29.069 244.589 28.7555C245.35 28.4419 246.179 28.2852 247.119 28.2852C248.038 28.2852 248.866 28.4419 249.628 28.7555C250.389 29.069 251.016 29.4945 251.554 30.032C252.091 30.5695 252.494 31.219 252.786 31.9581C253.077 32.6971 253.234 33.5034 253.234 34.3544C253.234 35.2279 253.077 36.0341 252.786 36.7732C252.494 37.5122 252.091 38.1617 251.554 38.6992C251.016 39.2367 250.389 39.6622 249.628 39.9758C248.866 40.2893 248.038 40.4237 247.119 40.4237Z" fill="#595858"/>
<path d="M229.698 28.5986H233.461L235.028 33.7721C235.096 34.0856 235.163 34.3768 235.252 34.6455C235.342 34.9143 235.409 35.1606 235.476 35.3622C235.521 35.6309 235.588 35.8549 235.655 36.0788H235.7C235.745 35.8549 235.812 35.6309 235.879 35.3622C235.924 35.1606 235.991 34.9143 236.081 34.6455C236.148 34.3768 236.238 34.0856 236.327 33.7721L237.917 28.5986H241.568L237.604 40.0653H233.662L229.698 28.5986Z" fill="#595858"/>
<path d="M224.154 37.8258C224.96 37.8258 225.565 37.5122 225.968 36.8852C226.371 36.2581 226.595 35.407 226.595 34.3544C226.595 33.3242 226.371 32.4732 225.968 31.8237C225.565 31.1966 224.96 30.8607 224.154 30.8607C223.347 30.8607 222.743 31.1966 222.34 31.8237C221.936 32.4732 221.735 33.3242 221.735 34.3544C221.735 35.407 221.936 36.2581 222.34 36.8852C222.743 37.5122 223.347 37.8258 224.154 37.8258ZM224.176 40.4237C223.235 40.4237 222.407 40.2893 221.645 39.9758C220.884 39.6622 220.257 39.2367 219.719 38.6992C219.182 38.1617 218.756 37.5122 218.465 36.7732C218.174 36.0341 218.04 35.2279 218.04 34.3544C218.04 33.5034 218.174 32.6971 218.465 31.9581C218.756 31.219 219.182 30.5695 219.719 30.032C220.257 29.4945 220.884 29.069 221.645 28.7555C222.407 28.4419 223.235 28.2852 224.176 28.2852C225.094 28.2852 225.923 28.4419 226.684 28.7555C227.446 29.069 228.073 29.4945 228.61 30.032C229.148 30.5695 229.551 31.219 229.842 31.9581C230.133 32.6971 230.29 33.5034 230.29 34.3544C230.29 35.2279 230.133 36.0341 229.842 36.7732C229.551 37.5122 229.148 38.1617 228.61 38.6992C228.073 39.2367 227.446 39.6622 226.684 39.9758C225.923 40.2893 225.094 40.4237 224.176 40.4237Z" fill="#595858"/>
<path d="M210.648 28.5991H214.142V30.3908H214.209C214.612 29.7189 215.06 29.2038 215.553 28.8902C216.045 28.5767 216.628 28.4199 217.344 28.4199C217.68 28.4199 217.927 28.4647 218.061 28.5095V31.6449H217.971C216.852 31.4882 215.956 31.6897 215.284 32.2272C214.612 32.7647 214.298 33.6605 214.298 34.9147V40.0658H210.648V28.5991Z" fill="#595858"/>
<path d="M196.71 24.0527H203.921C204.907 24.0527 205.758 24.1871 206.475 24.4335C207.191 24.7022 207.796 25.0605 208.289 25.5309C208.804 26.0236 209.207 26.5835 209.476 27.2553C209.744 27.9272 209.901 28.6663 209.901 29.4725C209.901 30.234 209.767 30.9507 209.52 31.5777C209.252 32.2272 208.893 32.7871 208.423 33.235C207.953 33.7053 207.393 34.0637 206.721 34.3324C206.049 34.6012 205.288 34.7132 204.481 34.7132H200.741V40.0658H196.71V24.0527ZM203.675 31.5777C204.392 31.5777 204.929 31.3986 205.332 30.9954C205.713 30.6147 205.915 30.0996 205.915 29.4501C205.915 28.823 205.713 28.3079 205.332 27.9496C204.929 27.5913 204.392 27.3897 203.675 27.3897H200.741V31.5777H203.675Z" fill="#595858"/>
<path d="M186.971 40.4012C186.031 40.4012 185.18 40.2669 184.418 39.9533C183.657 39.6398 183.007 39.2143 182.492 38.6768C181.955 38.1393 181.551 37.4898 181.283 36.7283C180.992 35.9893 180.857 35.183 180.857 34.3096C180.857 33.4585 180.992 32.6747 181.283 31.9356C181.551 31.1965 181.955 30.5471 182.492 30.0096C183.007 29.4721 183.634 29.0465 184.351 28.733C185.068 28.4195 185.851 28.2627 186.747 28.2627C187.554 28.2627 188.293 28.3971 188.942 28.6434C189.592 28.9122 190.174 29.2481 190.667 29.696C191.338 30.3231 191.854 31.1294 192.19 32.0924C192.525 33.0554 192.682 34.108 192.682 35.2726H184.441C184.553 36.0564 184.821 36.6611 185.247 37.1091C185.65 37.557 186.255 37.7809 187.016 37.7809C187.486 37.7809 187.89 37.6913 188.203 37.4898C188.517 37.2882 188.741 36.9971 188.92 36.6387H192.481C192.346 37.1762 192.122 37.6689 191.809 38.1393C191.473 38.6096 191.047 39.0127 190.555 39.3486C190.062 39.707 189.524 39.9533 188.942 40.1325C188.36 40.3117 187.688 40.4012 186.971 40.4012ZM188.987 33.1002C188.897 32.4283 188.673 31.8684 188.293 31.4653C187.89 31.0622 187.397 30.8606 186.815 30.8606C186.098 30.8606 185.56 31.0622 185.202 31.4653C184.821 31.8684 184.575 32.4283 184.463 33.1002H188.987Z" fill="#595858"/>
<path d="M169.048 24.0527H172.698V30.01H172.765C173.168 29.4725 173.639 29.047 174.176 28.7335C174.691 28.4199 175.363 28.2631 176.17 28.2631C176.797 28.2631 177.356 28.3751 177.849 28.5991C178.342 28.823 178.745 29.1142 179.103 29.4949C179.439 29.8757 179.708 30.3236 179.887 30.8611C180.066 31.3986 180.156 31.9809 180.156 32.6079V40.0658H176.505V33.347C176.505 32.7423 176.349 32.2496 176.058 31.8689C175.744 31.5105 175.296 31.309 174.714 31.309C174.087 31.309 173.594 31.5329 173.236 31.9809C172.877 32.4288 172.698 33.0111 172.698 33.7277V40.0658H169.048V24.0527Z" fill="#595858"/>
<path d="M166.19 40.1999C165.653 40.1999 165.16 40.1551 164.712 40.0655C164.264 39.9759 163.883 39.7967 163.57 39.5504C163.234 39.3264 162.988 38.9905 162.808 38.5874C162.629 38.1842 162.54 37.6691 162.54 37.0421V30.8832H161.017V28.5988H162.54V24.9707H166.101V28.5988H168.183V30.8832H166.101V36.2582C166.101 36.7061 166.213 37.0197 166.437 37.154C166.661 37.3108 166.974 37.378 167.377 37.378C167.534 37.378 167.691 37.378 167.848 37.378C167.982 37.378 168.094 37.3556 168.183 37.3556V40.0207C168.004 40.0655 167.758 40.1103 167.422 40.1551C167.086 40.1999 166.683 40.1999 166.19 40.1999Z" fill="#595858"/>
<path d="M152.105 30.9285H150.627V28.5993H152.105V27.7707C152.105 26.6285 152.419 25.7327 153.046 25.1056C153.539 24.6353 154.211 24.3217 155.106 24.1873C155.98 24.053 156.92 24.0306 157.906 24.1202V26.6957C157.548 26.6957 157.256 26.6957 156.988 26.7181C156.719 26.7405 156.495 26.7853 156.316 26.8748C156.137 26.9644 155.98 27.1212 155.89 27.3004C155.801 27.4795 155.756 27.7259 155.756 28.0394V28.5993H157.906V30.9285H155.756V40.066H152.105V30.9285Z" fill="#595858"/>
<path d="M144.55 37.8258C145.357 37.8258 145.961 37.5122 146.365 36.8852C146.768 36.2581 146.992 35.407 146.992 34.3544C146.992 33.3242 146.768 32.4732 146.365 31.8237C145.961 31.1966 145.357 30.8607 144.55 30.8607C143.744 30.8607 143.139 31.1966 142.736 31.8237C142.333 32.4732 142.132 33.3242 142.132 34.3544C142.132 35.407 142.333 36.2581 142.736 36.8852C143.139 37.5122 143.744 37.8258 144.55 37.8258ZM144.573 40.4237C143.632 40.4237 142.804 40.2893 142.042 39.9758C141.281 39.6622 140.654 39.2367 140.116 38.6992C139.579 38.1617 139.153 37.5122 138.862 36.7732C138.571 36.0341 138.436 35.2279 138.436 34.3544C138.436 33.5034 138.571 32.6971 138.862 31.9581C139.153 31.219 139.579 30.5695 140.116 30.032C140.654 29.4945 141.281 29.069 142.042 28.7555C142.804 28.4419 143.632 28.2852 144.573 28.2852C145.491 28.2852 146.32 28.4419 147.081 28.7555C147.843 29.069 148.47 29.4945 149.007 30.032C149.545 30.5695 149.948 31.219 150.239 31.9581C150.53 32.6971 150.687 33.5034 150.687 34.3544C150.687 35.2279 150.53 36.0341 150.239 36.7732C149.948 37.5122 149.545 38.1617 149.007 38.6992C148.47 39.2367 147.843 39.6622 147.081 39.9758C146.32 40.2893 145.491 40.4237 144.573 40.4237Z" fill="#595858"/>
<path d="M129.437 40.4012C128.496 40.4012 127.645 40.2669 126.884 39.9533C126.122 39.6398 125.473 39.2143 124.958 38.6768C124.42 38.1393 124.017 37.4898 123.748 36.7283C123.457 35.9893 123.323 35.183 123.323 34.3096C123.323 33.4585 123.457 32.6747 123.748 31.9356C124.017 31.1965 124.42 30.5471 124.958 30.0096C125.473 29.4721 126.1 29.0465 126.816 28.733C127.533 28.4195 128.317 28.2627 129.213 28.2627C130.019 28.2627 130.758 28.3971 131.408 28.6434C132.057 28.9122 132.639 29.2481 133.132 29.696C133.804 30.3231 134.319 31.1294 134.655 32.0924C134.991 33.0554 135.148 34.108 135.148 35.2726H126.906C127.018 36.0564 127.287 36.6611 127.712 37.1091C128.115 37.557 128.72 37.7809 129.482 37.7809C129.952 37.7809 130.355 37.6913 130.669 37.4898C130.982 37.2882 131.206 36.9971 131.385 36.6387H134.946C134.812 37.1762 134.588 37.6689 134.274 38.1393C133.938 38.6096 133.513 39.0127 133.02 39.3486C132.527 39.707 131.99 39.9533 131.408 40.1325C130.825 40.3117 130.153 40.4012 129.437 40.4012ZM131.452 33.1002C131.363 32.4283 131.139 31.8684 130.758 31.4653C130.355 31.0622 129.862 30.8606 129.28 30.8606C128.563 30.8606 128.026 31.0622 127.667 31.4653C127.287 31.8684 127.04 32.4283 126.928 33.1002H131.452Z" fill="#595858"/>
<path d="M117.68 40.4237C116.74 40.4237 115.911 40.2893 115.172 39.9758C114.41 39.6622 113.783 39.2367 113.246 38.6992C112.708 38.1617 112.305 37.5122 112.014 36.7732C111.723 36.0341 111.588 35.2279 111.588 34.3544C111.588 33.5034 111.723 32.6971 112.014 31.9581C112.283 31.219 112.686 30.5695 113.223 30.032C113.738 29.4945 114.366 29.069 115.105 28.7555C115.844 28.4419 116.672 28.2852 117.591 28.2852C118.352 28.2852 119.069 28.3971 119.696 28.6211C120.323 28.8451 120.883 29.1362 121.353 29.5169C121.801 29.9201 122.182 30.368 122.473 30.9055C122.742 31.443 122.943 32.0477 123.033 32.6747H119.517C119.382 32.1596 119.181 31.7565 118.867 31.443C118.554 31.1294 118.15 30.9727 117.635 30.9727C116.829 30.9727 116.247 31.2862 115.866 31.8909C115.463 32.4956 115.284 33.3242 115.284 34.3544C115.284 35.3846 115.463 36.2133 115.866 36.7956C116.247 37.4003 116.829 37.6914 117.635 37.6914C118.8 37.6914 119.449 37.0419 119.629 35.7206H123.122C123.078 36.3925 122.943 36.9971 122.674 37.5794C122.406 38.1617 122.047 38.6544 121.577 39.08C121.107 39.5055 120.547 39.8414 119.875 40.0654C119.203 40.3117 118.486 40.4237 117.68 40.4237Z" fill="#595858"/>
<path d="M93.4125 30.9283H91.9344V28.5991H93.4125V27.8824C93.4125 27.3673 93.4573 26.9194 93.5917 26.5387C93.7037 26.1579 93.8829 25.822 94.1068 25.5309C94.3308 25.2173 94.6219 24.971 94.9802 24.7694C95.3386 24.5902 95.7193 24.4335 96.1672 24.3439C96.5927 24.2543 97.0407 24.1871 97.5334 24.1647C98.0261 24.1647 98.5188 24.1871 99.0115 24.2319V26.8074C98.698 26.8074 98.4292 26.8074 98.2052 26.8074C97.9589 26.8298 97.7573 26.8746 97.6006 26.9642C97.4214 27.0538 97.287 27.2105 97.1974 27.3897C97.1079 27.5689 97.0631 27.8152 97.0631 28.1288V28.5991H100.221V27.7704C100.221 26.8074 100.445 26.046 100.893 25.4637C101.117 25.1501 101.408 24.9038 101.766 24.7022C102.125 24.5006 102.528 24.3439 102.976 24.2319C103.423 24.1423 103.894 24.0751 104.409 24.0527C104.924 24.0527 105.461 24.0751 105.999 24.1199V26.6954C105.641 26.6954 105.35 26.6954 105.081 26.7178C104.812 26.7402 104.588 26.785 104.409 26.8746C104.23 26.9642 104.073 27.121 103.983 27.3001C103.894 27.4793 103.849 27.7257 103.849 28.0392V28.5991H105.999V30.9283H103.849V40.0658H100.221V30.9283H97.0631V40.0658H93.4125V30.9283ZM107.164 28.5991H110.814V40.0658H107.164V28.5991ZM107.164 24.0527H110.814V27.009H107.164V24.0527Z" fill="#595858"/>
<path d="M83.7808 37.2215C84.4078 37.2215 84.9677 37.1096 85.4604 36.8408C85.9532 36.5721 86.3563 36.2137 86.6922 35.7658C87.0058 35.3179 87.2521 34.758 87.4089 34.1309C87.5657 33.5038 87.6552 32.832 87.6552 32.0929C87.6552 31.3762 87.5657 30.682 87.4089 30.0549C87.2521 29.4278 87.0058 28.8903 86.6922 28.42C86.3563 27.9721 85.9532 27.6137 85.4604 27.345C84.9677 27.0762 84.4078 26.9419 83.7808 26.9419C83.1313 26.9419 82.5714 27.0762 82.0787 27.345C81.586 27.6137 81.1828 27.9721 80.8693 28.42C80.5334 28.8903 80.287 29.4278 80.1302 30.0549C79.9511 30.682 79.8839 31.3762 79.8839 32.0929C79.8839 32.832 79.9511 33.5038 80.1302 34.1309C80.287 34.758 80.5334 35.3179 80.8693 35.7658C81.1828 36.2137 81.586 36.5721 82.0787 36.8408C82.5714 37.1096 83.1313 37.2215 83.7808 37.2215ZM83.7584 40.4465C82.549 40.4465 81.4516 40.245 80.4662 39.8195C79.4808 39.4163 78.6521 38.834 77.9802 38.0726C77.3084 37.3335 76.7709 36.4601 76.4125 35.4299C76.0318 34.3997 75.8526 33.3023 75.8526 32.0929C75.8526 30.9059 76.0318 29.8085 76.4125 28.7783C76.7709 27.7481 77.3084 26.8747 77.9802 26.1132C78.6521 25.3742 79.4808 24.7919 80.4662 24.3663C81.4516 23.9632 82.549 23.7393 83.7584 23.7393C84.9677 23.7393 86.0427 23.9632 87.0282 24.3663C88.0136 24.7919 88.8422 25.3742 89.5365 26.1132C90.2084 26.8747 90.7459 27.7481 91.1266 28.7783C91.4849 29.8085 91.6865 30.9059 91.6865 32.0929C91.6865 33.3023 91.4849 34.3997 91.1266 35.4299C90.7459 36.4601 90.2084 37.3335 89.5365 38.0726C88.8422 38.834 88.0136 39.4163 87.0282 39.8195C86.0427 40.245 84.9677 40.4465 83.7584 40.4465Z" fill="#595858"/>
<path d="M274.689 2.55273H278.34V8.51003H278.407C278.81 7.97253 279.281 7.547 279.818 7.23346C280.333 6.91992 281.005 6.76315 281.811 6.76315C282.438 6.76315 282.998 6.87513 283.491 7.09909C283.984 7.32305 284.387 7.61419 284.745 7.99492C285.081 8.37565 285.35 8.82357 285.529 9.36107C285.708 9.89857 285.798 10.4809 285.798 11.1079V18.5658H282.147V11.847C282.147 11.2423 281.991 10.7496 281.699 10.3689C281.386 10.0105 280.938 9.80898 280.356 9.80898C279.729 9.80898 279.236 10.0329 278.877 10.4809C278.519 10.9288 278.34 11.5111 278.34 12.2277V18.5658H274.689V2.55273Z" fill="black"/>
<path d="M268.532 18.9237C267.591 18.9237 266.763 18.7893 266.024 18.4758C265.262 18.1622 264.635 17.7367 264.097 17.1992C263.56 16.6617 263.157 16.0122 262.866 15.2732C262.575 14.5341 262.44 13.7279 262.44 12.8544C262.44 12.0034 262.575 11.1971 262.866 10.4581C263.134 9.71901 263.538 9.06953 264.075 8.53203C264.59 7.99453 265.217 7.56901 265.956 7.25547C266.695 6.94193 267.524 6.78516 268.442 6.78516C269.204 6.78516 269.92 6.89714 270.547 7.12109C271.175 7.34505 271.734 7.6362 272.205 8.01693C272.653 8.42005 273.033 8.86797 273.325 9.40547C273.593 9.94297 273.795 10.5477 273.884 11.1747H270.368C270.234 10.6596 270.032 10.2565 269.719 9.94297C269.405 9.62943 269.002 9.47266 268.487 9.47266C267.681 9.47266 267.099 9.7862 266.718 10.3909C266.315 10.9956 266.135 11.8242 266.135 12.8544C266.135 13.8846 266.315 14.7133 266.718 15.2956C267.099 15.9003 267.681 16.1914 268.487 16.1914C269.652 16.1914 270.301 15.5419 270.48 14.2206H273.974C273.929 14.8924 273.795 15.4971 273.526 16.0794C273.257 16.6617 272.899 17.1544 272.429 17.5799C271.958 18.0055 271.399 18.3414 270.727 18.5654C270.055 18.8117 269.338 18.9237 268.532 18.9237Z" fill="black"/>
<path d="M255.048 7.09909H258.542V8.89076H258.609C259.013 8.21888 259.46 7.70378 259.953 7.39023C260.446 7.07669 261.028 6.91992 261.745 6.91992C262.081 6.91992 262.327 6.96471 262.461 7.00951V10.1449H262.372C261.252 9.98815 260.356 10.1897 259.684 10.7272C259.013 11.2647 258.699 12.1605 258.699 13.4147V18.5658H255.048V7.09909Z" fill="black"/>
<path d="M246.762 18.8565C246.179 18.8565 245.664 18.7893 245.172 18.6326C244.679 18.4982 244.276 18.2742 243.94 17.9607C243.582 17.6695 243.313 17.3112 243.134 16.8633C242.932 16.4378 242.842 15.9451 242.842 15.3628C242.842 14.7357 242.954 14.2206 243.178 13.7951C243.402 13.3695 243.738 13.0112 244.141 12.7424C244.545 12.4737 244.992 12.2497 245.53 12.093C246.067 11.9586 246.627 11.8466 247.232 11.757C248.307 11.6227 249.046 11.4883 249.494 11.3091C249.92 11.1523 250.143 10.8836 250.143 10.4805C250.143 10.1221 250.009 9.80859 249.763 9.58464C249.516 9.36068 249.113 9.2487 248.576 9.2487C247.993 9.2487 247.546 9.38307 247.254 9.62943C246.941 9.89818 246.762 10.2565 246.717 10.7268H243.358C243.358 10.1893 243.492 9.69661 243.716 9.20391C243.94 8.73359 244.253 8.30807 244.679 7.94974C245.104 7.59141 245.642 7.32266 246.291 7.0987C246.918 6.89714 247.68 6.78516 248.553 6.78516C249.404 6.78516 250.143 6.87474 250.748 7.03151C251.33 7.18828 251.846 7.41224 252.271 7.72578C252.764 8.08411 253.122 8.55443 253.368 9.09193C253.592 9.65182 253.727 10.2789 253.727 10.9956V16.7737C253.727 17.244 253.749 17.6023 253.794 17.8711C253.839 18.1398 253.951 18.319 254.13 18.4086V18.5654H250.591C250.502 18.4534 250.412 18.2966 250.367 18.0727C250.3 17.8487 250.255 17.6023 250.211 17.2888H250.166C249.808 17.7815 249.382 18.1622 248.845 18.431C248.307 18.7221 247.613 18.8565 246.762 18.8565ZM247.926 16.5273C248.598 16.5273 249.158 16.3482 249.584 15.9674C250.009 15.6091 250.233 15.094 250.233 14.4669V13.1008C249.987 13.2352 249.696 13.3471 249.382 13.4367C249.068 13.5263 248.71 13.6159 248.352 13.7055C247.635 13.8846 247.142 14.0638 246.829 14.2878C246.515 14.5117 246.359 14.8253 246.359 15.2508C246.359 15.7211 246.493 16.057 246.807 16.2362C247.098 16.4378 247.478 16.5273 247.926 16.5273Z" fill="black"/>
<path d="M236.895 18.9012C235.954 18.9012 235.103 18.7669 234.342 18.4533C233.58 18.1398 232.931 17.7143 232.416 17.1768C231.878 16.6393 231.475 15.9898 231.206 15.2283C230.915 14.4893 230.781 13.683 230.781 12.8096C230.781 11.9585 230.915 11.1747 231.206 10.4356C231.475 9.69655 231.878 9.04707 232.416 8.50957C232.931 7.97207 233.558 7.54655 234.274 7.23301C234.991 6.91947 235.775 6.7627 236.671 6.7627C237.477 6.7627 238.216 6.89707 238.866 7.14342C239.515 7.41217 240.097 7.74811 240.59 8.19603C241.262 8.82311 241.777 9.62936 242.113 10.5924C242.449 11.5554 242.606 12.608 242.606 13.7726H234.364C234.476 14.5564 234.745 15.1611 235.17 15.6091C235.573 16.057 236.178 16.2809 236.94 16.2809C237.41 16.2809 237.813 16.1913 238.127 15.9898C238.44 15.7882 238.664 15.4971 238.843 15.1387H242.404C242.27 15.6762 242.046 16.1689 241.732 16.6393C241.396 17.1096 240.971 17.5127 240.478 17.8486C239.985 18.207 239.448 18.4533 238.866 18.6325C238.283 18.8117 237.611 18.9012 236.895 18.9012ZM238.91 11.6002C238.821 10.9283 238.597 10.3684 238.216 9.9653C237.813 9.56217 237.32 9.36061 236.738 9.36061C236.021 9.36061 235.484 9.56217 235.125 9.9653C234.745 10.3684 234.498 10.9283 234.386 11.6002H238.91Z" fill="black"/>
<path d="M225.231 18.9236C223.529 18.9236 222.208 18.5653 221.222 17.8486C220.237 17.132 219.699 16.1242 219.655 14.8476H223.104C223.171 15.4299 223.395 15.8554 223.753 16.1242C224.111 16.4153 224.582 16.5497 225.209 16.5497C225.746 16.5497 226.194 16.4601 226.508 16.2585C226.821 16.0794 227.001 15.7882 227.001 15.4075C227.001 15.1611 226.911 14.9596 226.754 14.8028C226.575 14.646 226.373 14.5117 226.105 14.4221C225.836 14.3325 225.522 14.2429 225.164 14.1981C224.806 14.1533 224.447 14.0861 224.089 13.9966C223.596 13.907 223.104 13.8174 222.611 13.683C222.118 13.5486 221.67 13.3695 221.267 13.1007C220.864 12.8544 220.551 12.5184 220.327 12.0929C220.08 11.6674 219.968 11.1075 219.968 10.4356C219.968 9.85332 220.08 9.31582 220.349 8.84551C220.618 8.39759 220.976 8.01686 221.424 7.70332C221.872 7.38978 222.387 7.16582 222.992 7.00905C223.596 6.85228 224.246 6.7627 224.918 6.7627C226.53 6.7627 227.784 7.09863 228.658 7.74811C229.509 8.41999 230.002 9.31582 230.091 10.4356H226.732C226.642 9.92051 226.441 9.56217 226.127 9.38301C225.814 9.20384 225.388 9.09186 224.895 9.09186C224.447 9.09186 224.067 9.18145 223.753 9.36061C223.44 9.53978 223.305 9.78613 223.305 10.1445C223.305 10.3684 223.372 10.5252 223.529 10.6372C223.664 10.7715 223.865 10.8611 224.134 10.9507C224.38 11.0403 224.671 11.1075 225.007 11.1523C225.343 11.2195 225.702 11.2867 226.06 11.3314C226.553 11.421 227.068 11.533 227.583 11.6674C228.098 11.8018 228.568 11.9809 228.994 12.2497C229.419 12.5184 229.778 12.8992 230.046 13.3471C230.315 13.795 230.449 14.3997 230.449 15.1163C230.449 15.7434 230.315 16.3033 230.046 16.7736C229.778 17.2663 229.419 17.6471 228.971 17.9606C228.501 18.2742 227.941 18.5205 227.314 18.6773C226.665 18.8564 225.97 18.9236 225.231 18.9236Z" fill="black"/>
<path d="M213.864 18.9012C212.923 18.9012 212.072 18.7669 211.311 18.4533C210.549 18.1398 209.9 17.7143 209.385 17.1768C208.847 16.6393 208.444 15.9898 208.175 15.2283C207.884 14.4893 207.75 13.683 207.75 12.8096C207.75 11.9585 207.884 11.1747 208.175 10.4356C208.444 9.69655 208.847 9.04707 209.385 8.50957C209.9 7.97207 210.527 7.54655 211.243 7.23301C211.96 6.91947 212.744 6.7627 213.64 6.7627C214.446 6.7627 215.185 6.89707 215.835 7.14342C216.484 7.41217 217.066 7.74811 217.559 8.19603C218.231 8.82311 218.746 9.62936 219.082 10.5924C219.418 11.5554 219.575 12.608 219.575 13.7726H211.333C211.445 14.5564 211.714 15.1611 212.139 15.6091C212.542 16.057 213.147 16.2809 213.909 16.2809C214.379 16.2809 214.782 16.1913 215.096 15.9898C215.409 15.7882 215.633 15.4971 215.812 15.1387H219.373C219.239 15.6762 219.015 16.1689 218.701 16.6393C218.365 17.1096 217.94 17.5127 217.447 17.8486C216.954 18.207 216.417 18.4533 215.835 18.6325C215.252 18.8117 214.58 18.9012 213.864 18.9012ZM215.879 11.6002C215.79 10.9283 215.566 10.3684 215.185 9.9653C214.782 9.56217 214.289 9.36061 213.707 9.36061C212.99 9.36061 212.453 9.56217 212.095 9.9653C211.714 10.3684 211.467 10.9283 211.355 11.6002H215.879Z" fill="black"/>
<path d="M194.021 2.55273H201.68C202.464 2.55273 203.203 2.66471 203.897 2.86628C204.569 3.06784 205.174 3.35898 205.667 3.73971C206.159 4.14284 206.562 4.61315 206.854 5.19544C207.122 5.77773 207.279 6.42721 207.279 7.16628C207.279 8.1069 207.033 8.91315 206.585 9.56263C206.137 10.2345 205.443 10.7272 204.502 11.0408V11.1079C205.196 11.3543 205.734 11.7126 206.092 12.1605C206.45 12.6085 206.697 13.2355 206.831 14.0418C206.921 14.5793 206.966 15.0944 206.988 15.5871C207.01 16.0798 207.033 16.5277 207.078 16.9309C207.1 17.334 207.145 17.6475 207.212 17.9163C207.257 18.185 207.369 18.3194 207.503 18.3642V18.5658H203.651C203.539 18.521 203.449 18.3642 203.405 18.1178C203.36 17.8715 203.315 17.5803 203.27 17.222C203.225 16.8637 203.203 16.4829 203.181 16.0798C203.136 15.6767 203.091 15.2512 203.046 14.848C202.934 14.109 202.666 13.5491 202.262 13.146C201.859 12.7652 201.232 12.5637 200.381 12.5637H197.985V18.5658H194.021V2.55273ZM200.963 9.62982C201.747 9.62982 202.33 9.47305 202.733 9.11471C203.136 8.77878 203.337 8.30846 203.337 7.68138C203.337 7.09909 203.136 6.62877 202.755 6.24805C202.374 5.88971 201.814 5.68815 201.053 5.68815H197.985V9.62982H200.963Z" fill="black"/>
<path d="M185.748 2.55273H189.443V18.5658H185.748V2.55273Z" fill="black"/>
<path d="M177.439 18.8565C176.856 18.8565 176.341 18.7893 175.849 18.6326C175.356 18.4982 174.953 18.2742 174.617 17.9607C174.259 17.6695 173.99 17.3112 173.811 16.8633C173.609 16.4378 173.519 15.9451 173.519 15.3628C173.519 14.7357 173.631 14.2206 173.855 13.7951C174.079 13.3695 174.415 13.0112 174.818 12.7424C175.222 12.4737 175.669 12.2497 176.207 12.093C176.744 11.9586 177.304 11.8466 177.909 11.757C178.984 11.6227 179.723 11.4883 180.171 11.3091C180.597 11.1523 180.82 10.8836 180.82 10.4805C180.82 10.1221 180.686 9.80859 180.44 9.58464C180.193 9.36068 179.79 9.2487 179.253 9.2487C178.67 9.2487 178.223 9.38307 177.931 9.62943C177.618 9.89818 177.439 10.2565 177.394 10.7268H174.035C174.035 10.1893 174.169 9.69661 174.393 9.20391C174.617 8.73359 174.93 8.30807 175.356 7.94974C175.781 7.59141 176.319 7.32266 176.968 7.0987C177.595 6.89714 178.357 6.78516 179.23 6.78516C180.081 6.78516 180.82 6.87474 181.425 7.03151C182.007 7.18828 182.523 7.41224 182.948 7.72578C183.441 8.08411 183.799 8.55443 184.045 9.09193C184.269 9.65182 184.404 10.2789 184.404 10.9956V16.7737C184.404 17.244 184.426 17.6023 184.471 17.8711C184.516 18.1398 184.628 18.319 184.807 18.4086V18.5654H181.268C181.179 18.4534 181.089 18.2966 181.044 18.0727C180.977 17.8487 180.932 17.6023 180.888 17.2888H180.843C180.485 17.7815 180.059 18.1622 179.522 18.431C178.984 18.7221 178.29 18.8565 177.439 18.8565ZM178.603 16.5273C179.275 16.5273 179.835 16.3482 180.261 15.9674C180.686 15.6091 180.91 15.094 180.91 14.4669V13.1008C180.664 13.2352 180.373 13.3471 180.059 13.4367C179.745 13.5263 179.387 13.6159 179.029 13.7055C178.312 13.8846 177.819 14.0638 177.506 14.2878C177.192 14.5117 177.036 14.8253 177.036 15.2508C177.036 15.7211 177.17 16.057 177.484 16.2362C177.775 16.4378 178.155 16.5273 178.603 16.5273Z" fill="black"/>
<path d="M161.732 7.09863H165.248V8.66634H165.316C165.741 8.03926 166.234 7.56894 166.794 7.2554C167.354 6.94186 168.048 6.7627 168.854 6.7627C169.481 6.7627 170.041 6.87467 170.534 7.09863C171.027 7.32259 171.43 7.61374 171.788 7.99447C172.124 8.3752 172.393 8.82311 172.572 9.36061C172.751 9.89811 172.841 10.4804 172.841 11.1075V18.5653H169.19V11.8465C169.19 11.2419 169.033 10.7492 168.742 10.3684C168.429 10.0101 167.981 9.80853 167.398 9.80853C166.771 9.80853 166.279 10.0325 165.92 10.4804C165.562 10.9283 165.383 11.5106 165.383 12.2273V18.5653H161.732V7.09863Z" fill="black"/>
<path d="M154.81 16.3258C155.616 16.3258 156.221 16.0122 156.624 15.3852C157.027 14.7581 157.251 13.907 157.251 12.8544C157.251 11.8242 157.027 10.9732 156.624 10.3237C156.221 9.69661 155.616 9.36068 154.81 9.36068C154.003 9.36068 153.399 9.69661 152.996 10.3237C152.592 10.9732 152.391 11.8242 152.391 12.8544C152.391 13.907 152.592 14.7581 152.996 15.3852C153.399 16.0122 154.003 16.3258 154.81 16.3258ZM154.832 18.9237C153.891 18.9237 153.063 18.7893 152.301 18.4758C151.54 18.1622 150.913 17.7367 150.375 17.1992C149.838 16.6617 149.412 16.0122 149.121 15.2732C148.83 14.5341 148.696 13.7279 148.696 12.8544C148.696 12.0034 148.83 11.1971 149.121 10.4581C149.412 9.71901 149.838 9.06953 150.375 8.53203C150.913 7.99453 151.54 7.56901 152.301 7.25547C153.063 6.94193 153.891 6.78516 154.832 6.78516C155.75 6.78516 156.579 6.94193 157.34 7.25547C158.102 7.56901 158.729 7.99453 159.266 8.53203C159.804 9.06953 160.207 9.71901 160.498 10.4581C160.789 11.1971 160.946 12.0034 160.946 12.8544C160.946 13.7279 160.789 14.5341 160.498 15.2732C160.207 16.0122 159.804 16.6617 159.266 17.1992C158.729 17.7367 158.102 18.1622 157.34 18.4758C156.579 18.7893 155.75 18.9237 154.832 18.9237Z" fill="black"/>
<path d="M144.257 7.09909H147.907V18.5658H144.257V7.09909ZM144.257 2.55273H147.907V5.50898H144.257V2.55273Z" fill="black"/>
<path d="M141.399 18.6999C140.862 18.6999 140.369 18.6551 139.921 18.5655C139.473 18.4759 139.092 18.2967 138.779 18.0504C138.443 17.8264 138.196 17.4905 138.017 17.0874C137.838 16.6842 137.749 16.1691 137.749 15.5421V9.3832H136.226V7.09883H137.749V3.4707H141.31V7.09883H143.392V9.3832H141.31V14.7582C141.31 15.2061 141.421 15.5197 141.645 15.654C141.869 15.8108 142.183 15.878 142.586 15.878C142.743 15.878 142.9 15.878 143.056 15.878C143.191 15.878 143.303 15.8556 143.392 15.8556V18.5207C143.213 18.5655 142.967 18.6103 142.631 18.6551C142.295 18.6999 141.892 18.6999 141.399 18.6999Z" fill="black"/>
<path d="M128.557 18.9012C127.213 18.9012 126.206 18.5205 125.534 17.7367C124.862 16.9528 124.526 15.9226 124.526 14.6236V7.09863H128.154V13.8622C128.154 14.4893 128.288 14.982 128.58 15.3179C128.848 15.6538 129.296 15.8106 129.879 15.8106C130.506 15.8106 130.998 15.6091 131.357 15.1835C131.715 14.758 131.894 14.1981 131.894 13.5038V7.09863H135.545V18.5653H132.051V17.1544H131.984C131.558 17.7367 131.088 18.1622 130.55 18.4533C130.013 18.7669 129.363 18.9012 128.557 18.9012Z" fill="black"/>
<path d="M121.758 18.6999C121.221 18.6999 120.728 18.6551 120.28 18.5655C119.832 18.4759 119.451 18.2967 119.138 18.0504C118.802 17.8264 118.556 17.4905 118.376 17.0874C118.197 16.6842 118.108 16.1691 118.108 15.5421V9.3832H116.585V7.09883H118.108V3.4707H121.669V7.09883H123.751V9.3832H121.669V14.7582C121.669 15.2061 121.781 15.5197 122.004 15.654C122.228 15.8108 122.542 15.878 122.945 15.878C123.102 15.878 123.259 15.878 123.415 15.878C123.55 15.878 123.662 15.8556 123.751 15.8556V18.5207C123.572 18.5655 123.326 18.6103 122.99 18.6551C122.654 18.6999 122.251 18.6999 121.758 18.6999Z" fill="black"/>
<path d="M112.258 7.09909H115.908V18.5658H112.258V7.09909ZM112.258 2.55273H115.908V5.50898H112.258V2.55273Z" fill="black"/>
<path d="M109.4 18.6999C108.863 18.6999 108.37 18.6551 107.922 18.5655C107.474 18.4759 107.093 18.2967 106.78 18.0504C106.444 17.8264 106.198 17.4905 106.018 17.0874C105.839 16.6842 105.75 16.1691 105.75 15.5421V9.3832H104.227V7.09883H105.75V3.4707H109.311V7.09883H111.393V9.3832H109.311V14.7582C109.311 15.2061 109.423 15.5197 109.647 15.654C109.87 15.8108 110.184 15.878 110.587 15.878C110.744 15.878 110.901 15.878 111.057 15.878C111.192 15.878 111.304 15.8556 111.393 15.8556V18.5207C111.214 18.5655 110.968 18.6103 110.632 18.6551C110.296 18.6999 109.893 18.6999 109.4 18.6999Z" fill="black"/>
<path d="M99.2267 18.9236C97.5246 18.9236 96.2033 18.5653 95.2178 17.8486C94.2324 17.132 93.6949 16.1242 93.6501 14.8476H97.0991C97.1663 15.4299 97.3902 15.8554 97.7486 16.1242C98.1069 16.4153 98.5772 16.5497 99.2043 16.5497C99.7418 16.5497 100.19 16.4601 100.503 16.2585C100.817 16.0794 100.996 15.7882 100.996 15.4075C100.996 15.1611 100.906 14.9596 100.75 14.8028C100.57 14.646 100.369 14.5117 100.1 14.4221C99.8314 14.3325 99.5178 14.2429 99.1595 14.1981C98.8012 14.1533 98.4428 14.0861 98.0845 13.9966C97.5918 13.907 97.0991 13.8174 96.6064 13.683C96.1137 13.5486 95.6658 13.3695 95.2626 13.1007C94.8595 12.8544 94.546 12.5184 94.322 12.0929C94.0757 11.6674 93.9637 11.1075 93.9637 10.4356C93.9637 9.85332 94.0757 9.31582 94.3444 8.84551C94.6132 8.39759 94.9715 8.01686 95.4194 7.70332C95.8673 7.38978 96.3824 7.16582 96.9871 7.00905C97.5918 6.85228 98.2413 6.7627 98.9132 6.7627C100.526 6.7627 101.78 7.09863 102.653 7.74811C103.504 8.41999 103.997 9.31582 104.087 10.4356H100.727C100.638 9.92051 100.436 9.56217 100.123 9.38301C99.809 9.20384 99.3835 9.09186 98.8908 9.09186C98.4428 9.09186 98.0621 9.18145 97.7486 9.36061C97.435 9.53978 97.3007 9.78613 97.3007 10.1445C97.3007 10.3684 97.3678 10.5252 97.5246 10.6372C97.659 10.7715 97.8606 10.8611 98.1293 10.9507C98.3757 11.0403 98.6668 11.1075 99.0027 11.1523C99.3387 11.2195 99.697 11.2867 100.055 11.3314C100.548 11.421 101.063 11.533 101.578 11.6674C102.093 11.8018 102.564 11.9809 102.989 12.2497C103.415 12.5184 103.773 12.8992 104.042 13.3471C104.311 13.795 104.445 14.3997 104.445 15.1163C104.445 15.7434 104.311 16.3033 104.042 16.7736C103.773 17.2663 103.415 17.6471 102.967 17.9606C102.496 18.2742 101.937 18.5205 101.31 18.6773C100.66 18.8564 99.9658 18.9236 99.2267 18.9236Z" fill="black"/>
<path d="M82.0197 7.09863H85.5359V8.66634H85.603C86.0286 8.03926 86.5213 7.56894 87.0812 7.2554C87.6411 6.94186 88.3353 6.7627 89.1416 6.7627C89.7687 6.7627 90.3286 6.87467 90.8213 7.09863C91.314 7.32259 91.7171 7.61374 92.0754 7.99447C92.4114 8.3752 92.6801 8.82311 92.8593 9.36061C93.0385 9.89811 93.128 10.4804 93.128 11.1075V18.5653H89.4775V11.8465C89.4775 11.2419 89.3207 10.7492 89.0296 10.3684C88.7161 10.0101 88.2681 9.80853 87.6859 9.80853C87.0588 9.80853 86.5661 10.0325 86.2077 10.4804C85.8494 10.9283 85.6702 11.5106 85.6702 12.2273V18.5653H82.0197V7.09863Z" fill="black"/>
<path d="M76.5245 2.55273H80.4886V18.5658H76.5245V2.55273Z" fill="black"/>
</svg>
