<svg width="286" height="44" viewBox="0 0 286 44" fill="none" xmlns="http://www.w3.org/2000/svg">
<path fill-rule="evenodd" clip-rule="evenodd" d="M0 13.7793H51.8526V16.941H0V13.7793ZM0 40.3382H51.8526V43.4999H0V40.3382ZM6.95633 38.441L6.95633 24.5293L2.52989 24.5293L2.52989 38.441H6.95633ZM13.9115 27.0588V38.4411H9.48504L9.48504 27.0588L13.9115 27.0588ZM20.8681 38.4405V34.6464H16.4416V38.4405H20.8681ZM27.8227 24.5293V38.441H23.3963V24.5293L27.8227 24.5293ZM34.7791 38.4407V18.2056H30.3526L30.3526 38.4407L34.7791 38.4407ZM41.7354 24.5293V38.441H37.309V24.5293L41.7354 24.5293ZM48.6906 38.4407V18.2056H44.2641V38.4407L48.6906 38.4407Z" fill="#ADADAD"/>
<path d="M48.3807 11.8823H3.16156C6.96713 5.18227 15.6583 0.5 25.7711 0.5C35.8839 0.5 44.5751 5.18227 48.3807 11.8823Z" fill="white"/>
<path d="M4.11115 25.1619L18.6552 35.2795L32.883 18.8384L39.8389 25.1619L47.1109 18.8384" stroke="white"/>
<path d="M269.075 40.7008C268.538 40.7008 268.045 40.6561 267.597 40.5665C267.149 40.4769 266.769 40.2977 266.455 40.0514C266.119 39.8274 265.873 39.4915 265.694 39.0883C265.515 38.6852 265.425 38.1701 265.425 37.543V31.3842H263.902V29.0998H265.425V25.4717H268.986V29.0998H271.069V31.3842H268.986V36.7592C268.986 37.2071 269.098 37.5206 269.322 37.655C269.546 37.8118 269.859 37.879 270.262 37.879C270.419 37.879 270.576 37.879 270.733 37.879C270.867 37.879 270.979 37.8566 271.069 37.8566V40.5217C270.89 40.5665 270.643 40.6113 270.307 40.6561C269.971 40.7008 269.568 40.7008 269.075 40.7008Z" fill="#ADADAD"/>
<path d="M258.902 40.9246C257.2 40.9246 255.879 40.5663 254.893 39.8496C253.908 39.1329 253.37 38.1251 253.325 36.8486H256.774C256.842 37.4309 257.066 37.8564 257.424 38.1251C257.782 38.4163 258.252 38.5507 258.88 38.5507C259.417 38.5507 259.865 38.4611 260.179 38.2595C260.492 38.0803 260.671 37.7892 260.671 37.4085C260.671 37.1621 260.582 36.9605 260.425 36.8038C260.246 36.647 260.044 36.5126 259.775 36.423C259.507 36.3335 259.193 36.2439 258.835 36.1991C258.476 36.1543 258.118 36.0871 257.76 35.9975C257.267 35.9079 256.774 35.8184 256.282 35.684C255.789 35.5496 255.341 35.3704 254.938 35.1017C254.535 34.8553 254.221 34.5194 253.997 34.0939C253.751 33.6684 253.639 33.1085 253.639 32.4366C253.639 31.8543 253.751 31.3168 254.02 30.8465C254.288 30.3986 254.647 30.0178 255.095 29.7043C255.543 29.3908 256.058 29.1668 256.662 29.01C257.267 28.8533 257.917 28.7637 258.588 28.7637C260.201 28.7637 261.455 29.0996 262.329 29.7491C263.18 30.421 263.672 31.3168 263.762 32.4366H260.402C260.313 31.9215 260.111 31.5632 259.798 31.384C259.484 31.2048 259.059 31.0928 258.566 31.0928C258.118 31.0928 257.737 31.1824 257.424 31.3616C257.11 31.5408 256.976 31.7871 256.976 32.1454C256.976 32.3694 257.043 32.5262 257.2 32.6382C257.334 32.7725 257.536 32.8621 257.805 32.9517C258.051 33.0413 258.342 33.1085 258.678 33.1533C259.014 33.2204 259.372 33.2876 259.731 33.3324C260.223 33.422 260.738 33.534 261.254 33.6684C261.769 33.8027 262.239 33.9819 262.664 34.2507C263.09 34.5194 263.448 34.9001 263.717 35.348C263.986 35.796 264.12 36.4007 264.12 37.1173C264.12 37.7444 263.986 38.3043 263.717 38.7746C263.448 39.2673 263.09 39.648 262.642 39.9616C262.172 40.2751 261.612 40.5215 260.985 40.6783C260.335 40.8574 259.641 40.9246 258.902 40.9246Z" fill="#ADADAD"/>
<path d="M247.097 38.3268C247.903 38.3268 248.508 38.0132 248.911 37.3861C249.314 36.7591 249.538 35.908 249.538 34.8554C249.538 33.8252 249.314 32.9742 248.911 32.3247C248.508 31.6976 247.903 31.3617 247.097 31.3617C246.291 31.3617 245.686 31.6976 245.283 32.3247C244.88 32.9742 244.678 33.8252 244.678 34.8554C244.678 35.908 244.88 36.7591 245.283 37.3861C245.686 38.0132 246.291 38.3268 247.097 38.3268ZM247.119 40.9247C246.179 40.9247 245.35 40.7903 244.589 40.4768C243.827 40.1632 243.2 39.7377 242.663 39.2002C242.125 38.6627 241.7 38.0132 241.409 37.2742C241.117 36.5351 240.983 35.7288 240.983 34.8554C240.983 34.0044 241.117 33.1981 241.409 32.4591C241.7 31.72 242.125 31.0705 242.663 30.533C243.2 29.9955 243.827 29.57 244.589 29.2564C245.35 28.9429 246.179 28.7861 247.119 28.7861C248.038 28.7861 248.866 28.9429 249.628 29.2564C250.389 29.57 251.016 29.9955 251.554 30.533C252.091 31.0705 252.494 31.72 252.786 32.4591C253.077 33.1981 253.234 34.0044 253.234 34.8554C253.234 35.7288 253.077 36.5351 252.786 37.2742C252.494 38.0132 252.091 38.6627 251.554 39.2002C251.016 39.7377 250.389 40.1632 249.628 40.4768C248.866 40.7903 248.038 40.9247 247.119 40.9247Z" fill="#ADADAD"/>
<path d="M229.698 29.0996H233.461L235.028 34.273C235.096 34.5866 235.163 34.8777 235.252 35.1465C235.342 35.4152 235.409 35.6616 235.476 35.8632C235.521 36.1319 235.588 36.3559 235.655 36.5798H235.7C235.745 36.3559 235.812 36.1319 235.879 35.8632C235.924 35.6616 235.991 35.4152 236.081 35.1465C236.148 34.8777 236.238 34.5866 236.327 34.273L237.917 29.0996H241.568L237.604 40.5663H233.662L229.698 29.0996Z" fill="#ADADAD"/>
<path d="M224.154 38.3268C224.96 38.3268 225.565 38.0132 225.968 37.3861C226.371 36.7591 226.595 35.908 226.595 34.8554C226.595 33.8252 226.371 32.9742 225.968 32.3247C225.565 31.6976 224.96 31.3617 224.154 31.3617C223.347 31.3617 222.743 31.6976 222.34 32.3247C221.936 32.9742 221.735 33.8252 221.735 34.8554C221.735 35.908 221.936 36.7591 222.34 37.3861C222.743 38.0132 223.347 38.3268 224.154 38.3268ZM224.176 40.9247C223.235 40.9247 222.407 40.7903 221.645 40.4768C220.884 40.1632 220.257 39.7377 219.719 39.2002C219.182 38.6627 218.756 38.0132 218.465 37.2742C218.174 36.5351 218.04 35.7288 218.04 34.8554C218.04 34.0044 218.174 33.1981 218.465 32.4591C218.756 31.72 219.182 31.0705 219.719 30.533C220.257 29.9955 220.884 29.57 221.645 29.2564C222.407 28.9429 223.235 28.7861 224.176 28.7861C225.094 28.7861 225.923 28.9429 226.684 29.2564C227.446 29.57 228.073 29.9955 228.61 30.533C229.148 31.0705 229.551 31.72 229.842 32.4591C230.133 33.1981 230.29 34.0044 230.29 34.8554C230.29 35.7288 230.133 36.5351 229.842 37.2742C229.551 38.0132 229.148 38.6627 228.61 39.2002C228.073 39.7377 227.446 40.1632 226.684 40.4768C225.923 40.7903 225.094 40.9247 224.176 40.9247Z" fill="#ADADAD"/>
<path d="M210.648 29.0996H214.142V30.8912H214.209C214.612 30.2194 215.06 29.7043 215.553 29.3907C216.045 29.0772 216.628 28.9204 217.344 28.9204C217.68 28.9204 217.927 28.9652 218.061 29.01V32.1454H217.971C216.852 31.9886 215.956 32.1902 215.284 32.7277C214.612 33.2652 214.298 34.161 214.298 35.4152V40.5662H210.648V29.0996Z" fill="#ADADAD"/>
<path d="M196.71 24.5532H203.921C204.907 24.5532 205.758 24.6876 206.475 24.934C207.191 25.2027 207.796 25.561 208.289 26.0313C208.804 26.5241 209.207 27.0839 209.476 27.7558C209.744 28.4277 209.901 29.1668 209.901 29.973C209.901 30.7345 209.767 31.4511 209.52 32.0782C209.252 32.7277 208.893 33.2876 208.423 33.7355C207.953 34.2058 207.393 34.5642 206.721 34.8329C206.049 35.1017 205.288 35.2136 204.481 35.2136H200.741V40.5662H196.71V24.5532ZM203.675 32.0782C204.392 32.0782 204.929 31.8991 205.332 31.4959C205.713 31.1152 205.915 30.6001 205.915 29.9506C205.915 29.3235 205.713 28.8084 205.332 28.4501C204.929 28.0918 204.392 27.8902 203.675 27.8902H200.741V32.0782H203.675Z" fill="#ADADAD"/>
<path d="M186.971 40.9022C186.031 40.9022 185.18 40.7678 184.418 40.4543C183.657 40.1408 183.007 39.7152 182.492 39.1777C181.955 38.6402 181.551 37.9908 181.283 37.2293C180.992 36.4902 180.857 35.684 180.857 34.8105C180.857 33.9595 180.992 33.1757 181.283 32.4366C181.551 31.6975 181.955 31.048 182.492 30.5105C183.007 29.973 183.634 29.5475 184.351 29.234C185.068 28.9204 185.851 28.7637 186.747 28.7637C187.554 28.7637 188.293 28.898 188.942 29.1444C189.592 29.4132 190.174 29.7491 190.667 30.197C191.338 30.8241 191.854 31.6303 192.19 32.5934C192.525 33.5564 192.682 34.609 192.682 35.7736H184.441C184.553 36.5574 184.821 37.1621 185.247 37.61C185.65 38.0579 186.255 38.2819 187.016 38.2819C187.486 38.2819 187.89 38.1923 188.203 37.9908C188.517 37.7892 188.741 37.498 188.92 37.1397H192.481C192.346 37.6772 192.122 38.1699 191.809 38.6402C191.473 39.1105 191.047 39.5137 190.555 39.8496C190.062 40.2079 189.524 40.4543 188.942 40.6335C188.36 40.8126 187.688 40.9022 186.971 40.9022ZM188.987 33.6012C188.897 32.9293 188.673 32.3694 188.293 31.9663C187.89 31.5632 187.397 31.3616 186.815 31.3616C186.098 31.3616 185.56 31.5632 185.202 31.9663C184.821 32.3694 184.575 32.9293 184.463 33.6012H188.987Z" fill="#ADADAD"/>
<path d="M169.048 24.5532H172.698V30.5105H172.765C173.168 29.973 173.639 29.5475 174.176 29.2339C174.691 28.9204 175.363 28.7636 176.17 28.7636C176.797 28.7636 177.356 28.8756 177.849 29.0996C178.342 29.3235 178.745 29.6147 179.103 29.9954C179.439 30.3761 179.708 30.8241 179.887 31.3616C180.066 31.8991 180.156 32.4813 180.156 33.1084V40.5662H176.505V33.8475C176.505 33.2428 176.349 32.7501 176.058 32.3694C175.744 32.011 175.296 31.8095 174.714 31.8095C174.087 31.8095 173.594 32.0334 173.236 32.4813C172.877 32.9293 172.698 33.5116 172.698 34.2282V40.5662H169.048V24.5532Z" fill="#ADADAD"/>
<path d="M166.19 40.7008C165.653 40.7008 165.16 40.6561 164.712 40.5665C164.264 40.4769 163.883 40.2977 163.57 40.0514C163.234 39.8274 162.988 39.4915 162.808 39.0883C162.629 38.6852 162.54 38.1701 162.54 37.543V31.3842H161.017V29.0998H162.54V25.4717H166.101V29.0998H168.183V31.3842H166.101V36.7592C166.101 37.2071 166.213 37.5206 166.437 37.655C166.661 37.8118 166.974 37.879 167.377 37.879C167.534 37.879 167.691 37.879 167.848 37.879C167.982 37.879 168.094 37.8566 168.183 37.8566V40.5217C168.004 40.5665 167.758 40.6113 167.422 40.6561C167.086 40.7008 166.683 40.7008 166.19 40.7008Z" fill="#ADADAD"/>
<path d="M152.105 31.429H150.627V29.0998H152.105V28.2712C152.105 27.129 152.419 26.2331 153.046 25.6061C153.539 25.1357 154.211 24.8222 155.106 24.6878C155.98 24.5535 156.92 24.5311 157.906 24.6206V27.1962C157.548 27.1962 157.256 27.1962 156.988 27.2186C156.719 27.241 156.495 27.2857 156.316 27.3753C156.137 27.4649 155.98 27.6217 155.89 27.8009C155.801 27.98 155.756 28.2264 155.756 28.5399V29.0998H157.906V31.429H155.756V40.5665H152.105V31.429Z" fill="#ADADAD"/>
<path d="M144.55 38.3268C145.357 38.3268 145.961 38.0132 146.365 37.3861C146.768 36.7591 146.992 35.908 146.992 34.8554C146.992 33.8252 146.768 32.9742 146.365 32.3247C145.961 31.6976 145.357 31.3617 144.55 31.3617C143.744 31.3617 143.139 31.6976 142.736 32.3247C142.333 32.9742 142.132 33.8252 142.132 34.8554C142.132 35.908 142.333 36.7591 142.736 37.3861C143.139 38.0132 143.744 38.3268 144.55 38.3268ZM144.573 40.9247C143.632 40.9247 142.804 40.7903 142.042 40.4768C141.281 40.1632 140.654 39.7377 140.116 39.2002C139.579 38.6627 139.153 38.0132 138.862 37.2742C138.571 36.5351 138.436 35.7288 138.436 34.8554C138.436 34.0044 138.571 33.1981 138.862 32.4591C139.153 31.72 139.579 31.0705 140.116 30.533C140.654 29.9955 141.281 29.57 142.042 29.2564C142.804 28.9429 143.632 28.7861 144.573 28.7861C145.491 28.7861 146.32 28.9429 147.081 29.2564C147.843 29.57 148.47 29.9955 149.007 30.533C149.545 31.0705 149.948 31.72 150.239 32.4591C150.53 33.1981 150.687 34.0044 150.687 34.8554C150.687 35.7288 150.53 36.5351 150.239 37.2742C149.948 38.0132 149.545 38.6627 149.007 39.2002C148.47 39.7377 147.843 40.1632 147.081 40.4768C146.32 40.7903 145.491 40.9247 144.573 40.9247Z" fill="#ADADAD"/>
<path d="M129.437 40.9022C128.496 40.9022 127.645 40.7678 126.884 40.4543C126.122 40.1408 125.473 39.7152 124.958 39.1777C124.42 38.6402 124.017 37.9908 123.748 37.2293C123.457 36.4902 123.323 35.684 123.323 34.8105C123.323 33.9595 123.457 33.1757 123.748 32.4366C124.017 31.6975 124.42 31.048 124.958 30.5105C125.473 29.973 126.1 29.5475 126.816 29.234C127.533 28.9204 128.317 28.7637 129.213 28.7637C130.019 28.7637 130.758 28.898 131.408 29.1444C132.057 29.4132 132.639 29.7491 133.132 30.197C133.804 30.8241 134.319 31.6303 134.655 32.5934C134.991 33.5564 135.148 34.609 135.148 35.7736H126.906C127.018 36.5574 127.287 37.1621 127.712 37.61C128.115 38.0579 128.72 38.2819 129.482 38.2819C129.952 38.2819 130.355 38.1923 130.669 37.9908C130.982 37.7892 131.206 37.498 131.385 37.1397H134.946C134.812 37.6772 134.588 38.1699 134.274 38.6402C133.938 39.1105 133.513 39.5137 133.02 39.8496C132.527 40.2079 131.99 40.4543 131.408 40.6335C130.825 40.8126 130.153 40.9022 129.437 40.9022ZM131.452 33.6012C131.363 32.9293 131.139 32.3694 130.758 31.9663C130.355 31.5632 129.862 31.3616 129.28 31.3616C128.563 31.3616 128.026 31.5632 127.667 31.9663C127.287 32.3694 127.04 32.9293 126.928 33.6012H131.452Z" fill="#ADADAD"/>
<path d="M117.68 40.9247C116.74 40.9247 115.911 40.7903 115.172 40.4768C114.41 40.1632 113.783 39.7377 113.246 39.2002C112.708 38.6627 112.305 38.0132 112.014 37.2742C111.723 36.5351 111.588 35.7288 111.588 34.8554C111.588 34.0044 111.723 33.1981 112.014 32.4591C112.283 31.72 112.686 31.0705 113.223 30.533C113.738 29.9955 114.366 29.57 115.105 29.2564C115.844 28.9429 116.672 28.7861 117.591 28.7861C118.352 28.7861 119.069 28.8981 119.696 29.1221C120.323 29.346 120.883 29.6372 121.353 30.0179C121.801 30.421 122.182 30.8689 122.473 31.4064C122.742 31.9439 122.943 32.5486 123.033 33.1757H119.517C119.382 32.6606 119.181 32.2575 118.867 31.9439C118.554 31.6304 118.15 31.4736 117.635 31.4736C116.829 31.4736 116.247 31.7872 115.866 32.3919C115.463 32.9966 115.284 33.8252 115.284 34.8554C115.284 35.8856 115.463 36.7143 115.866 37.2966C116.247 37.9012 116.829 38.1924 117.635 38.1924C118.8 38.1924 119.449 37.5429 119.629 36.2216H123.122C123.078 36.8934 122.943 37.4981 122.674 38.0804C122.406 38.6627 122.047 39.1554 121.577 39.5809C121.107 40.0064 120.547 40.3424 119.875 40.5663C119.203 40.8127 118.486 40.9247 117.68 40.9247Z" fill="#ADADAD"/>
<path d="M93.4125 31.4287H91.9344V29.0996H93.4125V28.3829C93.4125 27.8678 93.4573 27.4199 93.5917 27.0392C93.7037 26.6584 93.8829 26.3225 94.1068 26.0313C94.3308 25.7178 94.6219 25.4715 94.9802 25.2699C95.3386 25.0907 95.7193 24.934 96.1672 24.8444C96.5927 24.7548 97.0407 24.6876 97.5334 24.6652C98.0261 24.6652 98.5188 24.6876 99.0115 24.7324V27.3079C98.698 27.3079 98.4292 27.3079 98.2052 27.3079C97.9589 27.3303 97.7573 27.3751 97.6006 27.4647C97.4214 27.5543 97.287 27.711 97.1974 27.8902C97.1079 28.0694 97.0631 28.3157 97.0631 28.6293V29.0996H100.221V28.2709C100.221 27.3079 100.445 26.5464 100.893 25.9642C101.117 25.6506 101.408 25.4043 101.766 25.2027C102.125 25.0011 102.528 24.8444 102.976 24.7324C103.423 24.6428 103.894 24.5756 104.409 24.5532C104.924 24.5532 105.461 24.5756 105.999 24.6204V27.1959C105.641 27.1959 105.35 27.1959 105.081 27.2183C104.812 27.2407 104.588 27.2855 104.409 27.3751C104.23 27.4647 104.073 27.6215 103.983 27.8006C103.894 27.9798 103.849 28.2261 103.849 28.5397V29.0996H105.999V31.4287H103.849V40.5662H100.221V31.4287H97.0631V40.5662H93.4125V31.4287ZM107.164 29.0996H110.814V40.5662H107.164V29.0996ZM107.164 24.5532H110.814V27.5095H107.164V24.5532Z" fill="#ADADAD"/>
<path d="M83.7808 37.722C84.4078 37.722 84.9677 37.6101 85.4604 37.3413C85.9532 37.0726 86.3563 36.7142 86.6922 36.2663C87.0058 35.8184 87.2521 35.2585 87.4089 34.6314C87.5657 34.0043 87.6552 33.3325 87.6552 32.5934C87.6552 31.8767 87.5657 31.1825 87.4089 30.5554C87.2521 29.9283 87.0058 29.3908 86.6922 28.9205C86.3563 28.4726 85.9532 28.1142 85.4604 27.8455C84.9677 27.5767 84.4078 27.4423 83.7808 27.4423C83.1313 27.4423 82.5714 27.5767 82.0787 27.8455C81.586 28.1142 81.1828 28.4726 80.8693 28.9205C80.5334 29.3908 80.287 29.9283 80.1302 30.5554C79.9511 31.1825 79.8839 31.8767 79.8839 32.5934C79.8839 33.3325 79.9511 34.0043 80.1302 34.6314C80.287 35.2585 80.5334 35.8184 80.8693 36.2663C81.1828 36.7142 81.586 37.0726 82.0787 37.3413C82.5714 37.6101 83.1313 37.722 83.7808 37.722ZM83.7584 40.947C82.549 40.947 81.4516 40.7455 80.4662 40.32C79.4808 39.9168 78.6521 39.3345 77.9802 38.5731C77.3084 37.834 76.7709 36.9606 76.4125 35.9304C76.0318 34.9002 75.8526 33.8028 75.8526 32.5934C75.8526 31.4064 76.0318 30.309 76.4125 29.2788C76.7709 28.2486 77.3084 27.3752 77.9802 26.6137C78.6521 25.8746 79.4808 25.2923 80.4662 24.8668C81.4516 24.4637 82.549 24.2397 83.7584 24.2397C84.9677 24.2397 86.0427 24.4637 87.0282 24.8668C88.0136 25.2923 88.8422 25.8746 89.5365 26.6137C90.2084 27.3752 90.7459 28.2486 91.1266 29.2788C91.4849 30.309 91.6865 31.4064 91.6865 32.5934C91.6865 33.8028 91.4849 34.9002 91.1266 35.9304C90.7459 36.9606 90.2084 37.834 89.5365 38.5731C88.8422 39.3345 88.0136 39.9168 87.0282 40.32C86.0427 40.7455 84.9677 40.947 83.7584 40.947Z" fill="#ADADAD"/>
<path d="M268.532 19.4247C267.591 19.4247 266.763 19.2903 266.024 18.9768C265.262 18.6632 264.635 18.2377 264.098 17.7002C263.56 17.1627 263.157 16.5132 262.866 15.7742C262.575 15.0351 262.44 14.2288 262.44 13.3554C262.44 12.5044 262.575 11.6981 262.866 10.9591C263.135 10.22 263.538 9.57051 264.075 9.03301C264.59 8.49551 265.217 8.06999 265.956 7.75645C266.695 7.4429 267.524 7.28613 268.442 7.28613C269.204 7.28613 269.92 7.39811 270.548 7.62207C271.175 7.84603 271.735 8.13717 272.205 8.5179C272.653 8.92103 273.034 9.36895 273.325 9.90645C273.593 10.4439 273.795 11.0486 273.885 11.6757H270.368C270.234 11.1606 270.032 10.7575 269.719 10.4439C269.405 10.1304 269.002 9.97363 268.487 9.97363C267.681 9.97363 267.099 10.2872 266.718 10.8919C266.315 11.4966 266.136 12.3252 266.136 13.3554C266.136 14.3856 266.315 15.2143 266.718 15.7966C267.099 16.4012 267.681 16.6924 268.487 16.6924C269.652 16.6924 270.301 16.0429 270.48 14.7216H273.974C273.929 15.3934 273.795 15.9981 273.526 16.5804C273.257 17.1627 272.899 17.6554 272.429 18.0809C271.959 18.5064 271.399 18.8424 270.727 19.0663C270.055 19.3127 269.338 19.4247 268.532 19.4247Z" fill="white"/>
<path d="M255.048 7.59958H258.542V9.39124H258.609C259.012 8.71937 259.46 8.20426 259.953 7.89072C260.446 7.57718 261.028 7.42041 261.745 7.42041C262.081 7.42041 262.327 7.4652 262.461 7.50999V10.6454H262.372C261.252 10.4886 260.356 10.6902 259.684 11.2277C259.012 11.7652 258.699 12.661 258.699 13.9152V19.0662H255.048V7.59958Z" fill="white"/>
<path d="M246.762 19.3575C246.179 19.3575 245.664 19.2903 245.172 19.1335C244.679 18.9992 244.276 18.7752 243.94 18.4617C243.581 18.1705 243.313 17.8122 243.134 17.3643C242.932 16.9387 242.842 16.446 242.842 15.8637C242.842 15.2367 242.954 14.7215 243.178 14.296C243.402 13.8705 243.738 13.5122 244.141 13.2434C244.544 12.9747 244.992 12.7507 245.53 12.5939C246.067 12.4596 246.627 12.3476 247.232 12.258C248.307 12.1236 249.046 11.9893 249.494 11.8101C249.919 11.6533 250.143 11.3846 250.143 10.9814C250.143 10.6231 250.009 10.3096 249.763 10.0856C249.516 9.86165 249.113 9.74967 248.576 9.74967C247.993 9.74967 247.546 9.88405 247.254 10.1304C246.941 10.3992 246.762 10.7575 246.717 11.2278H243.357C243.357 10.6903 243.492 10.1976 243.716 9.70488C243.94 9.23457 244.253 8.80905 244.679 8.45072C245.104 8.09238 245.642 7.82363 246.291 7.59967C246.918 7.39811 247.68 7.28613 248.553 7.28613C249.404 7.28613 250.143 7.37572 250.748 7.53249C251.33 7.68926 251.845 7.91322 252.271 8.22676C252.764 8.58509 253.122 9.0554 253.368 9.5929C253.592 10.1528 253.727 10.7799 253.727 11.4965V17.2747C253.727 17.745 253.749 18.1033 253.794 18.3721C253.839 18.6408 253.951 18.82 254.13 18.9096V19.0663H250.591C250.502 18.9544 250.412 18.7976 250.367 18.5736C250.3 18.3497 250.255 18.1033 250.211 17.7898H250.166C249.807 18.2825 249.382 18.6632 248.844 18.932C248.307 19.2231 247.613 19.3575 246.762 19.3575ZM247.926 17.0283C248.598 17.0283 249.158 16.8492 249.584 16.4684C250.009 16.1101 250.233 15.595 250.233 14.9679V13.6018C249.987 13.7361 249.696 13.8481 249.382 13.9377C249.068 14.0273 248.71 14.1169 248.352 14.2064C247.635 14.3856 247.142 14.5648 246.829 14.7887C246.515 15.0127 246.359 15.3262 246.359 15.7518C246.359 16.2221 246.493 16.558 246.806 16.7372C247.098 16.9387 247.478 17.0283 247.926 17.0283Z" fill="white"/>
<path d="M236.895 19.4022C235.954 19.4022 235.103 19.2678 234.342 18.9543C233.58 18.6408 232.931 18.2152 232.416 17.6777C231.878 17.1402 231.475 16.4908 231.206 15.7293C230.915 14.9902 230.781 14.184 230.781 13.3105C230.781 12.4595 230.915 11.6757 231.206 10.9366C231.475 10.1975 231.878 9.54805 232.416 9.01055C232.931 8.47305 233.558 8.04753 234.274 7.73398C234.991 7.42044 235.775 7.26367 236.671 7.26367C237.477 7.26367 238.216 7.39805 238.866 7.6444C239.515 7.91315 240.097 8.24909 240.59 8.697C241.262 9.32409 241.777 10.1303 242.113 11.0934C242.449 12.0564 242.606 13.109 242.606 14.2736H234.364C234.476 15.0574 234.745 15.6621 235.17 16.11C235.573 16.5579 236.178 16.7819 236.939 16.7819C237.41 16.7819 237.813 16.6923 238.126 16.4908C238.44 16.2892 238.664 15.998 238.843 15.6397H242.404C242.27 16.1772 242.046 16.6699 241.732 17.1402C241.396 17.6105 240.971 18.0137 240.478 18.3496C239.985 18.7079 239.448 18.9543 238.866 19.1335C238.283 19.3126 237.611 19.4022 236.895 19.4022ZM238.91 12.1012C238.821 11.4293 238.597 10.8694 238.216 10.4663C237.813 10.0632 237.32 9.86159 236.738 9.86159C236.021 9.86159 235.484 10.0632 235.125 10.4663C234.745 10.8694 234.498 11.4293 234.386 12.1012H238.91Z" fill="white"/>
<path d="M225.231 19.4246C223.529 19.4246 222.208 19.0663 221.222 18.3496C220.237 17.6329 219.699 16.6251 219.655 15.3486H223.104C223.171 15.9309 223.395 16.3564 223.753 16.6251C224.111 16.9163 224.582 17.0507 225.209 17.0507C225.746 17.0507 226.194 16.9611 226.508 16.7595C226.821 16.5803 227 16.2892 227 15.9085C227 15.6621 226.911 15.4605 226.754 15.3038C226.575 15.147 226.373 15.0126 226.105 14.923C225.836 14.8335 225.522 14.7439 225.164 14.6991C224.806 14.6543 224.447 14.5871 224.089 14.4975C223.596 14.4079 223.104 14.3184 222.611 14.184C222.118 14.0496 221.67 13.8704 221.267 13.6017C220.864 13.3553 220.55 13.0194 220.327 12.5939C220.08 12.1684 219.968 11.6085 219.968 10.9366C219.968 10.3543 220.08 9.8168 220.349 9.34648C220.618 8.89857 220.976 8.51784 221.424 8.2043C221.872 7.89076 222.387 7.6668 222.992 7.51003C223.596 7.35326 224.246 7.26367 224.918 7.26367C226.53 7.26367 227.784 7.59961 228.658 8.24909C229.509 8.92096 230.002 9.8168 230.091 10.9366H226.732C226.642 10.4215 226.441 10.0632 226.127 9.88398C225.813 9.70482 225.388 9.59284 224.895 9.59284C224.447 9.59284 224.067 9.68242 223.753 9.86159C223.44 10.0408 223.305 10.2871 223.305 10.6454C223.305 10.8694 223.372 11.0262 223.529 11.1382C223.663 11.2725 223.865 11.3621 224.134 11.4517C224.38 11.5413 224.671 11.6085 225.007 11.6533C225.343 11.7204 225.702 11.7876 226.06 11.8324C226.553 11.922 227.068 12.034 227.583 12.1684C228.098 12.3027 228.568 12.4819 228.994 12.7507C229.419 13.0194 229.778 13.4001 230.046 13.848C230.315 14.296 230.449 14.9007 230.449 15.6173C230.449 16.2444 230.315 16.8043 230.046 17.2746C229.778 17.7673 229.419 18.148 228.971 18.4616C228.501 18.7751 227.941 19.0215 227.314 19.1783C226.665 19.3574 225.97 19.4246 225.231 19.4246Z" fill="white"/>
<path d="M213.864 19.4022C212.923 19.4022 212.072 19.2678 211.311 18.9543C210.549 18.6408 209.9 18.2152 209.385 17.6777C208.847 17.1402 208.444 16.4908 208.175 15.7293C207.884 14.9902 207.75 14.184 207.75 13.3105C207.75 12.4595 207.884 11.6757 208.175 10.9366C208.444 10.1975 208.847 9.54805 209.385 9.01055C209.9 8.47305 210.527 8.04753 211.243 7.73398C211.96 7.42044 212.744 7.26367 213.64 7.26367C214.446 7.26367 215.185 7.39805 215.835 7.6444C216.484 7.91315 217.066 8.24909 217.559 8.697C218.231 9.32409 218.746 10.1303 219.082 11.0934C219.418 12.0564 219.575 13.109 219.575 14.2736H211.333C211.445 15.0574 211.714 15.6621 212.139 16.11C212.542 16.5579 213.147 16.7819 213.908 16.7819C214.379 16.7819 214.782 16.6923 215.095 16.4908C215.409 16.2892 215.633 15.998 215.812 15.6397H219.373C219.239 16.1772 219.015 16.6699 218.701 17.1402C218.365 17.6105 217.94 18.0137 217.447 18.3496C216.954 18.7079 216.417 18.9543 215.835 19.1335C215.252 19.3126 214.58 19.4022 213.864 19.4022ZM215.879 12.1012C215.79 11.4293 215.566 10.8694 215.185 10.4663C214.782 10.0632 214.289 9.86159 213.707 9.86159C212.99 9.86159 212.453 10.0632 212.094 10.4663C211.714 10.8694 211.467 11.4293 211.355 12.1012H215.879Z" fill="white"/>
<path d="M194.021 3.05322H201.68C202.464 3.05322 203.203 3.1652 203.897 3.36676C204.569 3.56833 205.174 3.85947 205.667 4.2402C206.159 4.64333 206.563 5.11364 206.854 5.69593C207.122 6.27822 207.279 6.9277 207.279 7.66676C207.279 8.60739 207.033 9.41364 206.585 10.0631C206.137 10.735 205.443 11.2277 204.502 11.5412V11.6084C205.196 11.8548 205.734 12.2131 206.092 12.661C206.451 13.109 206.697 13.736 206.831 14.5423C206.921 15.0798 206.966 15.5949 206.988 16.0876C207.01 16.5803 207.033 17.0282 207.078 17.4313C207.1 17.8345 207.145 18.148 207.212 18.4168C207.257 18.6855 207.369 18.8199 207.503 18.8647V19.0662H203.651C203.539 19.0214 203.449 18.8647 203.405 18.6183C203.36 18.372 203.315 18.0808 203.27 17.7225C203.226 17.3642 203.203 16.9834 203.181 16.5803C203.136 16.1772 203.091 15.7517 203.046 15.3485C202.934 14.6095 202.666 14.0496 202.263 13.6465C201.859 13.2657 201.232 13.0642 200.381 13.0642H197.985V19.0662H194.021V3.05322ZM200.964 10.1303C201.747 10.1303 202.33 9.97353 202.733 9.6152C203.136 9.27926 203.338 8.80895 203.338 8.18187C203.338 7.59958 203.136 7.12926 202.755 6.74853C202.374 6.3902 201.815 6.18864 201.053 6.18864H197.985V10.1303H200.964Z" fill="white"/>
<path d="M185.748 3.05322H189.443V19.0662H185.748V3.05322Z" fill="white"/>
<path d="M177.439 19.3575C176.856 19.3575 176.341 19.2903 175.849 19.1335C175.356 18.9992 174.953 18.7752 174.617 18.4617C174.258 18.1705 173.99 17.8122 173.811 17.3643C173.609 16.9387 173.519 16.446 173.519 15.8637C173.519 15.2367 173.631 14.7215 173.855 14.296C174.079 13.8705 174.415 13.5122 174.818 13.2434C175.221 12.9747 175.669 12.7507 176.207 12.5939C176.744 12.4596 177.304 12.3476 177.909 12.258C178.984 12.1236 179.723 11.9893 180.171 11.8101C180.596 11.6533 180.82 11.3846 180.82 10.9814C180.82 10.6231 180.686 10.3096 180.44 10.0856C180.193 9.86165 179.79 9.74967 179.253 9.74967C178.67 9.74967 178.223 9.88405 177.931 10.1304C177.618 10.3992 177.439 10.7575 177.394 11.2278H174.034C174.034 10.6903 174.169 10.1976 174.393 9.70488C174.617 9.23457 174.93 8.80905 175.356 8.45072C175.781 8.09238 176.319 7.82363 176.968 7.59967C177.595 7.39811 178.357 7.28613 179.23 7.28613C180.081 7.28613 180.82 7.37572 181.425 7.53249C182.007 7.68926 182.523 7.91322 182.948 8.22676C183.441 8.58509 183.799 9.0554 184.045 9.5929C184.269 10.1528 184.404 10.7799 184.404 11.4965V17.2747C184.404 17.745 184.426 18.1033 184.471 18.3721C184.516 18.6408 184.628 18.82 184.807 18.9096V19.0663H181.268C181.179 18.9544 181.089 18.7976 181.044 18.5736C180.977 18.3497 180.932 18.1033 180.888 17.7898H180.843C180.484 18.2825 180.059 18.6632 179.521 18.932C178.984 19.2231 178.29 19.3575 177.439 19.3575ZM178.603 17.0283C179.275 17.0283 179.835 16.8492 180.261 16.4684C180.686 16.1101 180.91 15.595 180.91 14.9679V13.6018C180.664 13.7361 180.373 13.8481 180.059 13.9377C179.745 14.0273 179.387 14.1169 179.029 14.2064C178.312 14.3856 177.819 14.5648 177.506 14.7887C177.192 15.0127 177.036 15.3262 177.036 15.7518C177.036 16.2221 177.17 16.558 177.483 16.7372C177.775 16.9387 178.155 17.0283 178.603 17.0283Z" fill="white"/>
<path d="M161.732 7.59961H165.248V9.16732H165.316C165.741 8.54023 166.234 8.06992 166.794 7.75638C167.354 7.44284 168.048 7.26367 168.854 7.26367C169.481 7.26367 170.041 7.37565 170.534 7.59961C171.027 7.82357 171.43 8.11471 171.788 8.49544C172.124 8.87617 172.393 9.32409 172.572 9.86159C172.751 10.3991 172.841 10.9814 172.841 11.6085V19.0663H169.19V12.3475C169.19 11.7428 169.033 11.2501 168.742 10.8694C168.429 10.5111 167.981 10.3095 167.398 10.3095C166.771 10.3095 166.279 10.5335 165.92 10.9814C165.562 11.4293 165.383 12.0116 165.383 12.7283V19.0663H161.732V7.59961Z" fill="white"/>
<path d="M154.81 16.8268C155.616 16.8268 156.221 16.5132 156.624 15.8861C157.027 15.2591 157.251 14.408 157.251 13.3554C157.251 12.3252 157.027 11.4742 156.624 10.8247C156.221 10.1976 155.616 9.86165 154.81 9.86165C154.003 9.86165 153.399 10.1976 152.996 10.8247C152.593 11.4742 152.391 12.3252 152.391 13.3554C152.391 14.408 152.593 15.2591 152.996 15.8861C153.399 16.5132 154.003 16.8268 154.81 16.8268ZM154.832 19.4247C153.891 19.4247 153.063 19.2903 152.301 18.9768C151.54 18.6632 150.913 18.2377 150.375 17.7002C149.838 17.1627 149.412 16.5132 149.121 15.7742C148.83 15.0351 148.696 14.2288 148.696 13.3554C148.696 12.5044 148.83 11.6981 149.121 10.9591C149.412 10.22 149.838 9.57051 150.375 9.03301C150.913 8.49551 151.54 8.06999 152.301 7.75645C153.063 7.4429 153.891 7.28613 154.832 7.28613C155.75 7.28613 156.579 7.4429 157.34 7.75645C158.102 8.06999 158.729 8.49551 159.266 9.03301C159.804 9.57051 160.207 10.22 160.498 10.9591C160.789 11.6981 160.946 12.5044 160.946 13.3554C160.946 14.2288 160.789 15.0351 160.498 15.7742C160.207 16.5132 159.804 17.1627 159.266 17.7002C158.729 18.2377 158.102 18.6632 157.34 18.9768C156.579 19.2903 155.75 19.4247 154.832 19.4247Z" fill="white"/>
<path d="M144.256 7.59958H147.907V19.0662H144.256V7.59958ZM144.256 3.05322H147.907V6.00947H144.256V3.05322Z" fill="white"/>
<path d="M141.399 19.2008C140.862 19.2008 140.369 19.1561 139.921 19.0665C139.473 18.9769 139.092 18.7977 138.779 18.5514C138.443 18.3274 138.197 17.9915 138.017 17.5883C137.838 17.1852 137.749 16.6701 137.749 16.043V9.88418H136.226V7.59981H137.749V3.97168H141.31V7.59981H143.392V9.88418H141.31V15.2592C141.31 15.7071 141.422 16.0206 141.645 16.155C141.869 16.3118 142.183 16.379 142.586 16.379C142.743 16.379 142.9 16.379 143.056 16.379C143.191 16.379 143.303 16.3566 143.392 16.3566V19.0217C143.213 19.0665 142.967 19.1113 142.631 19.1561C142.295 19.2008 141.892 19.2008 141.399 19.2008Z" fill="white"/>
<path d="M128.557 19.4022C127.213 19.4022 126.206 19.0215 125.534 18.2376C124.862 17.4538 124.526 16.4236 124.526 15.1246V7.59961H128.154V14.3632C128.154 14.9902 128.288 15.4829 128.58 15.8189C128.848 16.1548 129.296 16.3116 129.879 16.3116C130.506 16.3116 130.998 16.11 131.357 15.6845C131.715 15.259 131.894 14.6991 131.894 14.0048V7.59961H135.545V19.0663H132.051V17.6553H131.984C131.558 18.2376 131.088 18.6632 130.55 18.9543C130.013 19.2678 129.363 19.4022 128.557 19.4022Z" fill="white"/>
<path d="M121.758 19.2008C121.221 19.2008 120.728 19.1561 120.28 19.0665C119.832 18.9769 119.451 18.7977 119.138 18.5514C118.802 18.3274 118.556 17.9915 118.376 17.5883C118.197 17.1852 118.108 16.6701 118.108 16.043V9.88418H116.585V7.59981H118.108V3.97168H121.669V7.59981H123.751V9.88418H121.669V15.2592C121.669 15.7071 121.781 16.0206 122.005 16.155C122.229 16.3118 122.542 16.379 122.945 16.379C123.102 16.379 123.259 16.379 123.416 16.379C123.55 16.379 123.662 16.3566 123.751 16.3566V19.0217C123.572 19.0665 123.326 19.1113 122.99 19.1561C122.654 19.2008 122.251 19.2008 121.758 19.2008Z" fill="white"/>
<path d="M112.258 7.59958H115.908V19.0662H112.258V7.59958ZM112.258 3.05322H115.908V6.00947H112.258V3.05322Z" fill="white"/>
<path d="M109.4 19.2008C108.863 19.2008 108.37 19.1561 107.922 19.0665C107.474 18.9769 107.093 18.7977 106.78 18.5514C106.444 18.3274 106.197 17.9915 106.018 17.5883C105.839 17.1852 105.75 16.6701 105.75 16.043V9.88418H104.227V7.59981H105.75V3.97168H109.311V7.59981H111.393V9.88418H109.311V15.2592C109.311 15.7071 109.422 16.0206 109.646 16.155C109.87 16.3118 110.184 16.379 110.587 16.379C110.744 16.379 110.901 16.379 111.057 16.379C111.192 16.379 111.304 16.3566 111.393 16.3566V19.0217C111.214 19.0665 110.968 19.1113 110.632 19.1561C110.296 19.2008 109.893 19.2008 109.4 19.2008Z" fill="white"/>
<path d="M99.2268 19.4246C97.5247 19.4246 96.2034 19.0663 95.2179 18.3496C94.2325 17.6329 93.695 16.6251 93.6502 15.3486H97.0992C97.1664 15.9309 97.3903 16.3564 97.7487 16.6251C98.107 16.9163 98.5773 17.0507 99.2044 17.0507C99.7419 17.0507 100.19 16.9611 100.503 16.7595C100.817 16.5803 100.996 16.2892 100.996 15.9085C100.996 15.6621 100.906 15.4605 100.75 15.3038C100.571 15.147 100.369 15.0126 100.1 14.923C99.8315 14.8335 99.5179 14.7439 99.1596 14.6991C98.8013 14.6543 98.4429 14.5871 98.0846 14.4975C97.5919 14.4079 97.0992 14.3184 96.6065 14.184C96.1138 14.0496 95.6659 13.8704 95.2627 13.6017C94.8596 13.3553 94.5461 13.0194 94.3221 12.5939C94.0758 12.1684 93.9638 11.6085 93.9638 10.9366C93.9638 10.3543 94.0758 9.8168 94.3445 9.34648C94.6133 8.89857 94.9716 8.51784 95.4195 8.2043C95.8674 7.89076 96.3825 7.6668 96.9872 7.51003C97.5919 7.35326 98.2414 7.26367 98.9133 7.26367C100.526 7.26367 101.78 7.59961 102.653 8.24909C103.504 8.92096 103.997 9.8168 104.087 10.9366H100.727C100.638 10.4215 100.436 10.0632 100.123 9.88398C99.8091 9.70482 99.3836 9.59284 98.8909 9.59284C98.4429 9.59284 98.0622 9.68242 97.7487 9.86159C97.4351 10.0408 97.3008 10.2871 97.3008 10.6454C97.3008 10.8694 97.3679 11.0262 97.5247 11.1382C97.6591 11.2725 97.8607 11.3621 98.1294 11.4517C98.3758 11.5413 98.6669 11.6085 99.0028 11.6533C99.3388 11.7204 99.6971 11.7876 100.055 11.8324C100.548 11.922 101.063 12.034 101.578 12.1684C102.093 12.3027 102.564 12.4819 102.989 12.7507C103.415 13.0194 103.773 13.4001 104.042 13.848C104.311 14.296 104.445 14.9007 104.445 15.6173C104.445 16.2444 104.311 16.8043 104.042 17.2746C103.773 17.7673 103.415 18.148 102.967 18.4616C102.497 18.7751 101.937 19.0215 101.31 19.1783C100.66 19.3574 99.9659 19.4246 99.2268 19.4246Z" fill="white"/>
<path d="M82.0196 7.59961H85.5358V9.16732H85.603C86.0285 8.54023 86.5212 8.06992 87.0811 7.75638C87.641 7.44284 88.3352 7.26367 89.1415 7.26367C89.7686 7.26367 90.3285 7.37565 90.8212 7.59961C91.3139 7.82357 91.717 8.11471 92.0753 8.49544C92.4113 8.87617 92.68 9.32409 92.8592 9.86159C93.0384 10.3991 93.128 10.9814 93.128 11.6085V19.0663H89.4774V12.3475C89.4774 11.7428 89.3207 11.2501 89.0295 10.8694C88.716 10.5111 88.2681 10.3095 87.6858 10.3095C87.0587 10.3095 86.566 10.5335 86.2076 10.9814C85.8493 11.4293 85.6701 12.0116 85.6701 12.7283V19.0663H82.0196V7.59961Z" fill="white"/>
<path d="M76.5245 3.05322H80.4886V19.0662H76.5245V3.05322Z" fill="white"/>
<path d="M274.69 3.05322H278.34V9.01051H278.407C278.81 8.47301 279.281 8.04749 279.818 7.73395C280.333 7.42041 281.005 7.26364 281.811 7.26364C282.438 7.26364 282.998 7.37562 283.491 7.59958C283.984 7.82353 284.387 8.11468 284.745 8.49541C285.081 8.87614 285.35 9.32405 285.529 9.86155C285.708 10.3991 285.798 10.9813 285.798 11.6084V19.0662H282.147V12.3475C282.147 11.7428 281.991 11.2501 281.699 10.8694C281.386 10.511 280.938 10.3095 280.356 10.3095C279.729 10.3095 279.236 10.5334 278.878 10.9813C278.519 11.4293 278.34 12.0116 278.34 12.7282V19.0662H274.69V3.05322Z" fill="white"/>
</svg>
