<svg width="41" height="40" viewBox="0 0 41 40" fill="none" xmlns="http://www.w3.org/2000/svg">
<path fill-rule="evenodd" clip-rule="evenodd" d="M24.9655 12.5628C28.3826 15.9799 28.3826 21.5201 24.9655 24.9372C21.5484 28.3543 16.0082 28.3543 12.5911 24.9372C9.17404 21.5201 9.17404 15.9799 12.5911 12.5628C16.0082 9.14573 21.5484 9.14573 24.9655 12.5628ZM27.7933 25.4824C31.0925 21.0762 30.7391 14.8009 26.7333 10.795C22.3399 6.40165 15.2168 6.40165 10.8234 10.795C6.42996 15.1884 6.42996 22.3116 10.8234 26.705C15.0059 30.8875 21.6625 31.0882 26.0825 27.3071L30.9324 32.157L32.7002 30.3892L27.7933 25.4824Z" fill="#0D0009"/>
</svg>
