<svg width="94" height="70" viewBox="0 0 94 70" fill="none" xmlns="http://www.w3.org/2000/svg">
<path d="M35.0196 5.54716L29.2269 0C9.21569 12.4151 0 26.1509 0 44.9057C0 59.6981 8.95238 70 21.591 70C32.9132 70 41.8655 61.283 41.8655 50.4528C41.8655 40.9434 34.7563 32.4906 26.3305 32.4906C25.2773 32.4906 22.9076 33.0189 20.0112 34.0755C20.0112 21.3962 23.4342 14.7925 35.0196 5.54716ZM86.8908 5.54716L81.098 0C60.8235 12.4151 51.6078 25.8868 51.6078 44.9057C51.6078 59.6981 60.8235 70 73.4622 70C85.0476 70 94 61.283 94 50.4528C94 40.9434 86.6275 32.4906 78.2017 32.4906C76.6219 32.4906 74.5154 33.0189 71.8824 34.0755C71.8824 21.3962 75.3053 14.7925 86.8908 5.54716Z" fill="#ED009B"/>
</svg>
